<?xml version="1.0" encoding="UTF-8" standalone="no"?>
<!-- Created with Inkscape (http://www.inkscape.org/) -->
<svg
   xmlns:dc="http://purl.org/dc/elements/1.1/"
   xmlns:cc="http://creativecommons.org/ns#"
   xmlns:rdf="http://www.w3.org/1999/02/22-rdf-syntax-ns#"
   xmlns:svg="http://www.w3.org/2000/svg"
   xmlns="http://www.w3.org/2000/svg"
   xmlns:sodipodi="http://sodipodi.sourceforge.net/DTD/sodipodi-0.dtd"
   xmlns:inkscape="http://www.inkscape.org/namespaces/inkscape"
   width="240"
   height="200"
   id="svg2"
   sodipodi:version="0.32"
   inkscape:version="0.46"
   version="1.0"
   sodipodi:docname="Suzanne.svg"
   inkscape:output_extension="org.inkscape.output.svg.inkscape">
  <defs
     id="defs4"><inkscape:perspective
   sodipodi:type="inkscape:persp3d"
   inkscape:vp_x="0 : 526.18109 : 1"
   inkscape:vp_y="0 : 1000 : 0"
   inkscape:vp_z="744.09448 : 526.18109 : 1"
   inkscape:persp3d-origin="372.04724 : 350.78739 : 1"
   id="perspective10" />

<inkscape:perspective
   inkscape:vp_y="0 : 1000 : 0"
   inkscape:vp_x="0 : 100 : 1"
   inkscape:vp_z="240 : 100 : 1"
   inkscape:persp3d-origin="120 : 66.666667 : 1"
   sodipodi:type="inkscape:persp3d"
   id="perspective2745">
		</inkscape:perspective>

	
	
		</defs>
  <sodipodi:namedview
     id="base"
     pagecolor="#ffffff"
     bordercolor="#666666"
     borderopacity="1.0"
     gridtolerance="10000"
     guidetolerance="10"
     objecttolerance="10"
     inkscape:pageopacity="0.0"
     inkscape:pageshadow="2"
     inkscape:zoom="2.2666667"
     inkscape:cx="120"
     inkscape:cy="100"
     inkscape:document-units="px"
     inkscape:current-layer="layer1"
     showgrid="false"
     inkscape:window-width="640"
     inkscape:window-height="650"
     inkscape:window-x="146"
     inkscape:window-y="145" />
  <metadata
     id="metadata7">
    <rdf:RDF>
      <cc:Work
         rdf:about="">
        <dc:format>image/svg+xml</dc:format>
        <dc:type
           rdf:resource="http://purl.org/dc/dcmitype/StillImage" />
      </cc:Work>
    </rdf:RDF>
  </metadata>
  <g
     inkscape:label="Layer 1"
     inkscape:groupmode="layer"
     id="layer1">
    <path
       style="fill:#b00000;stroke:#000000;stroke-width:0.5;stroke-linejoin:round"
       id="path2487"
       d="M 212.63742,79.670155 L 217.75442,65.132155 L 217.42742,65.090155 L 212.67342,79.756155 L 212.63742,79.670155 z" />
    <path
       style="fill:#930000;stroke:#000000;stroke-width:0.5;stroke-linejoin:round"
       id="path2489"
       d="M 229.00942,58.975155 L 222.44842,62.139155 L 216.24342,81.764155 L 220.71442,83.560155 L 229.00942,58.975155 z" />
    <path
       style="fill:#9e0000;stroke:#000000;stroke-width:0.5;stroke-linejoin:round"
       id="path2491"
       d="M 217.75342,65.133155 L 213.90042,55.085155 L 212.87042,55.770155 L 217.42742,65.091155 L 217.75342,65.133155 z" />
    <path
       style="fill:#ea0000;stroke:#000000;stroke-width:0.5;stroke-linejoin:round"
       id="path2493"
       d="M 222.44842,62.139155 L 217.75342,65.132155 L 212.63642,79.670155 L 216.24242,81.765155 L 222.44842,62.139155 z" />
    <path
       style="fill:#890000;stroke:#000000;stroke-width:0.5;stroke-linejoin:round"
       id="path2495"
       d="M 220.95842,41.531155 L 218.00042,48.585155 L 222.44842,62.139155 L 229.00942,58.975155 L 220.95842,41.531155 z" />
    <path
       style="fill:#af0000;stroke:#000000;stroke-width:0.5;stroke-linejoin:round"
       id="path2497"
       d="M 218.00042,48.585155 L 213.90042,55.085155 L 217.75342,65.133155 L 222.44842,62.140155 L 218.00042,48.585155 z" />
    <path
       style="fill:#7f0000;stroke:#000000;stroke-width:0.5;stroke-linejoin:round"
       id="path2499"
       d="M 212.87042,55.770155 L 208.34542,63.850155 L 209.75042,69.665155 L 217.42742,65.091155 L 212.87042,55.770155 z" />
    <path
       style="fill:#900000;stroke:#000000;stroke-width:0.5;stroke-linejoin:round"
       id="path2501"
       d="M 220.71442,83.561155 L 216.24342,81.765155 L 205.30542,94.334155 L 204.34142,99.765155 L 220.71442,83.561155 z" />
    <path
       style="fill:#cd0000;stroke:#000000;stroke-width:0.5;stroke-linejoin:round"
       id="path2503"
       d="M 216.24342,81.765155 L 212.63742,79.670155 L 203.35742,89.674155 L 205.30542,94.334155 L 216.24342,81.765155 z" />
    <path
       style="fill:#7a0000;stroke:#000000;stroke-width:0.5;stroke-linejoin:round"
       id="path2505"
       d="M 212.67342,79.756155 L 205.44742,71.973155 L 201.18742,78.044155 L 201.45342,88.777155 L 212.67342,79.756155 z" />
    <path
       style="fill:#ad0000;stroke:#000000;stroke-width:0.5;stroke-linejoin:round"
       id="path2507"
       d="M 208.53242,46.233155 L 220.95942,41.531155 L 216.10242,43.114155 L 200.21642,47.047155 L 208.53242,46.233155 z" />
    <path
       style="fill:#9f0000;stroke:#000000;stroke-width:0.5;stroke-linejoin:round"
       id="path2509"
       d="M 203.86842,58.377155 L 208.34542,63.850155 L 212.87042,55.770155 L 203.86842,58.377155 z" />
    <path
       style="fill:#540000;stroke:#000000;stroke-width:0.5;stroke-linejoin:round"
       id="path2511"
       d="M 213.90042,55.085155 L 205.26142,57.820155 L 203.86742,58.377155 L 212.86942,55.770155 L 213.90042,55.085155 z" />
    <path
       style="fill:#960000;stroke:#000000;stroke-width:0.5;stroke-linejoin:round"
       id="path2513"
       d="M 202.99942,67.740155 L 205.44742,71.973155 L 209.75042,69.664155 L 208.34542,63.849155 L 202.99942,67.740155 z" />
    <path
       style="fill:#630000;stroke:#000000;stroke-width:0.5;stroke-linejoin:round"
       id="path2515"
       d="M 208.47042,52.432155 L 205.26242,57.820155 L 213.90142,55.085155 L 218.00142,48.585155 L 208.47042,52.432155 z" />
    <path
       style="fill:#7f0000;stroke:#000000;stroke-width:0.5;stroke-linejoin:round"
       id="path2517"
       d="M 203.86842,58.377155 L 199.78742,63.165155 L 202.99842,67.740155 L 208.34442,63.849155 L 203.86842,58.377155 z" />
    <path
       style="fill:#8a0000;stroke:#000000;stroke-width:0.5;stroke-linejoin:round"
       id="path2519"
       d="M 199.10242,73.939155 L 201.18742,78.044155 L 205.44742,71.973155 L 202.99942,67.740155 L 199.10242,73.939155 z" />
    <path
       style="fill:#8a0000;stroke:#000000;stroke-width:0.5;stroke-linejoin:round"
       id="path2521"
       d="M 208.53242,46.233155 L 208.47042,52.432155 L 218.00042,48.585155 L 220.95842,41.531155 L 208.53242,46.233155 z" />
    <path
       style="fill:#730000;stroke:#000000;stroke-width:0.5;stroke-linejoin:round"
       id="path2523"
       d="M 201.45242,88.777155 L 201.18642,78.044155 L 197.01342,84.372155 L 195.16942,92.794155 L 201.45242,88.777155 z" />
    <path
       style="fill:#b40000;stroke:#000000;stroke-width:0.5;stroke-linejoin:round"
       id="path2525"
       d="M 197.64942,94.418155 L 203.35742,89.674155 L 201.45242,88.777155 L 195.16942,92.794155 L 197.64942,94.418155 z" />
    <path
       style="fill:#920000;stroke:#000000;stroke-width:0.5;stroke-linejoin:round"
       id="path2527"
       d="M 193.92642,80.139155 L 197.01342,84.372155 L 201.18642,78.044155 L 199.10142,73.939155 L 193.92642,80.139155 z" />
    <path
       style="fill:#860000;stroke:#000000;stroke-width:0.5;stroke-linejoin:round"
       id="path2529"
       d="M 195.31542,68.637155 L 199.10142,73.939155 L 202.99842,67.740155 L 199.78742,63.165155 L 195.31542,68.637155 z" />
    <path
       style="fill:#c20000;stroke:#000000;stroke-width:0.5;stroke-linejoin:round"
       id="path2531"
       d="M 200.72342,54.056155 L 208.53242,46.233155 L 200.21642,47.047155 L 191.06942,53.801155 L 200.72342,54.056155 z" />
    <path
       style="fill:#9b0000;stroke:#000000;stroke-width:0.5;stroke-linejoin:round"
       id="path2533"
       d="M 188.92042,83.175155 L 190.32542,88.990155 L 197.01442,84.372155 L 193.92742,80.139155 L 188.92042,83.175155 z" />
    <path
       style="fill:#9a0000;stroke:#000000;stroke-width:0.5;stroke-linejoin:round"
       id="path2535"
       d="M 195.31542,68.637155 L 190.96742,74.451155 L 193.92642,80.138155 L 199.10142,73.938155 L 195.31542,68.637155 z" />
    <path
       style="fill:#d90000;stroke:#000000;stroke-width:0.5;stroke-linejoin:round"
       id="path2537"
       d="M 186.87342,91.897155 L 195.17042,92.794155 L 197.01442,84.372155 L 190.32542,88.990155 L 186.87342,91.897155 z" />
    <path
       style="fill:#960000;stroke:#000000;stroke-width:0.5;stroke-linejoin:round"
       id="path2539"
       d="M 205.30542,94.334155 L 203.35742,89.674155 L 197.64942,94.418155 L 196.42442,100.06115 L 205.30542,94.334155 z" />
    <path
       style="fill:#550000;stroke:#000000;stroke-width:0.5;stroke-linejoin:round"
       id="path2541"
       d="M 208.47042,52.432155 L 203.62242,58.674155 L 201.82042,62.609155 L 205.26142,57.821155 L 208.47042,52.432155 z" />
    <path
       style="fill:#980000;stroke:#000000;stroke-width:0.5;stroke-linejoin:round"
       id="path2543"
       d="M 188.92042,83.175155 L 193.92642,80.139155 L 190.96742,74.452155 L 183.93442,81.721155 L 188.92042,83.175155 z" />
    <path
       style="fill:#680000;stroke:#000000;stroke-width:0.5;stroke-linejoin:round"
       id="path2545"
       d="M 204.34142,99.764155 L 205.30542,94.333155 L 196.42542,100.06115 L 191.73742,106.73115 L 204.34142,99.764155 z" />
    <path
       style="fill:#af0000;stroke:#000000;stroke-width:0.5;stroke-linejoin:round"
       id="path2547"
       d="M 189.05342,92.666155 L 197.64942,94.418155 L 195.16942,92.794155 L 186.87242,91.897155 L 189.05342,92.666155 z" />
    <path
       style="fill:#9f0000;stroke:#000000;stroke-width:0.5;stroke-linejoin:round"
       id="path2549"
       d="M 208.53242,46.233155 L 200.72342,54.056155 L 203.62242,58.674155 L 208.47042,52.432155 L 208.53242,46.233155 z" />
    <path
       style="fill:#d70000;stroke:#000000;stroke-width:0.5;stroke-linejoin:round"
       id="path2551"
       d="M 180.53242,63.807155 L 195.78342,61.837155 L 200.72342,54.056155 L 191.06842,53.802155 L 180.53242,63.807155 z" />
    <path
       style="fill:#6b0000;stroke:#000000;stroke-width:0.5;stroke-linejoin:round"
       id="path2553"
       d="M 203.62242,58.674155 L 197.01742,65.344155 L 197.92442,68.808155 L 201.82142,62.609155 L 203.62242,58.674155 z" />
    <path
       style="fill:#8b0000;stroke:#000000;stroke-width:0.5;stroke-linejoin:round"
       id="path2555"
       d="M 185.47642,82.490155 L 185.83042,88.988155 L 191.86742,89.759155 L 190.52642,83.217155 L 185.47642,82.490155 z" />
    <path
       style="fill:#590000;stroke:#000000;stroke-width:0.5;stroke-linejoin:round"
       id="path2557"
       d="M 197.01742,65.343155 L 192.47742,73.339155 L 192.50942,75.221155 L 197.92442,68.807155 L 197.01742,65.343155 z" />
    <path
       style="fill:#7e0000;stroke:#000000;stroke-width:0.5;stroke-linejoin:round"
       id="path2559"
       d="M 191.86642,89.759155 L 185.82942,88.988155 L 186.04342,95.059155 L 189.05342,92.666155 L 191.86642,89.759155 z" />
    <path
       style="fill:#c70000;stroke:#000000;stroke-width:0.5;stroke-linejoin:round"
       id="path2561"
       d="M 196.42542,100.06115 L 197.65042,94.418155 L 189.05442,92.666155 L 186.04442,95.059155 L 196.42542,100.06115 z" />
    <path
       style="fill:#590000;stroke:#000000;stroke-width:0.5;stroke-linejoin:round"
       id="path2563"
       d="M 192.50942,75.221155 L 192.47742,73.339155 L 185.83042,88.987155 L 185.47642,82.489155 L 192.50942,75.221155 z" />
    <path
       style="fill:#920000;stroke:#000000;stroke-width:0.5;stroke-linejoin:round"
       id="path2565"
       d="M 195.78342,61.837155 L 197.01642,65.343155 L 203.62142,58.673155 L 200.72242,54.055155 L 195.78342,61.837155 z" />
    <path
       style="fill:#ba0000;stroke:#000000;stroke-width:0.5;stroke-linejoin:round"
       id="path2567"
       d="M 175.34642,104.63615 L 191.73742,106.73115 L 196.42542,100.06115 L 186.04342,95.059155 L 175.34642,104.63615 z" />
    <path
       style="fill:#8c0000;stroke:#000000;stroke-width:0.5;stroke-linejoin:round"
       id="path2569"
       d="M 70.544424,84.546155 L 81.003424,100.66515 L 96.213424,120.41515 L 88.852424,110.41015 L 70.544424,84.546155 z" />
    <path
       style="fill:#b40000;stroke:#000000;stroke-width:0.5;stroke-linejoin:round"
       id="path2571"
       d="M 204.00042,58.154155 L 213.83042,63.412155 L 211.05242,45.414155 L 196.15142,31.177155 L 204.00042,58.154155 z" />
    <path
       style="fill:#a80000;stroke:#000000;stroke-width:0.5;stroke-linejoin:round"
       id="path2573"
       d="M 87.654424,8.7361547 L 102.70442,8.0481547 L 139.86342,2.8321547 L 117.35242,3.1371547 L 87.654424,8.7361547 z" />
    <path
       style="fill:#790000;stroke:#000000;stroke-width:0.5;stroke-linejoin:round"
       id="path2575"
       d="M 190.38642,20.315155 L 197.42042,54.047155 L 204.00042,58.153155 L 196.15042,31.176155 L 190.38642,20.315155 z" />
    <path
       style="fill:#8a0000;stroke:#000000;stroke-width:0.5;stroke-linejoin:round"
       id="path2577"
       d="M 88.852424,110.40915 L 96.213424,120.41415 L 122.59342,134.73215 L 107.68042,114.12415 L 88.852424,110.40915 z" />
    <path
       style="fill:#a70000;stroke:#000000;stroke-width:0.5;stroke-linejoin:round"
       id="path2579"
       d="M 156.24142,16.850155 L 190.38742,20.314155 L 176.85342,8.0481547 L 139.86442,2.8321547 L 156.24142,16.850155 z" />
    <path
       style="fill:#570000;stroke:#000000;stroke-width:0.5;stroke-linejoin:round"
       id="path2581"
       d="M 211.95742,108.17615 L 225.11442,89.194155 L 224.52242,86.669155 L 215.44642,100.86415 L 211.95742,108.17615 z" />
    <path
       style="fill:#730000;stroke:#000000;stroke-width:0.5;stroke-linejoin:round"
       id="path2583"
       d="M 192.25742,112.11015 L 172.63142,124.46715 L 171.00542,128.91415 L 174.15942,114.12415 L 192.25742,112.11015 z" />
    <path
       style="fill:#620000;stroke:#000000;stroke-width:0.5;stroke-linejoin:round"
       id="path2585"
       d="M 225.11442,89.193155 L 236.88442,65.461155 L 229.75542,71.575155 L 224.52142,86.668155 L 225.11442,89.193155 z" />
    <path
       style="fill:#ab0000;stroke:#000000;stroke-width:0.5;stroke-linejoin:round"
       id="path2587"
       d="M 53.407424,83.175155 L 56.291424,83.217155 L 61.469424,82.490155 L 58.649424,81.721155 L 53.407424,83.175155 z" />
    <path
       style="fill:#ab0000;stroke:#000000;stroke-width:0.5;stroke-linejoin:round"
       id="path2589"
       d="M 52.897424,74.452155 L 48.186424,80.139155 L 53.407424,83.175155 L 58.649424,81.721155 L 52.897424,74.452155 z" />
    <path
       style="fill:#c90000;stroke:#000000;stroke-width:0.5;stroke-linejoin:round"
       id="path2591"
       d="M 80.075424,22.715155 L 102.70542,8.0481547 L 87.655424,8.7361547 L 67.868424,25.155155 L 80.075424,22.715155 z" />
    <path
       style="fill:#8f0000;stroke:#000000;stroke-width:0.5;stroke-linejoin:round"
       id="path2593"
       d="M 53.916424,91.897155 L 56.097424,92.666155 L 53.797424,89.759155 L 50.977424,88.990155 L 53.916424,91.897155 z" />
    <path
       style="fill:#930000;stroke:#000000;stroke-width:0.5;stroke-linejoin:round"
       id="path2595"
       d="M 58.649424,81.721155 L 61.469424,82.490155 L 55.718424,75.221155 L 52.898424,74.452155 L 58.649424,81.721155 z" />
    <path
       style="fill:#af0000;stroke:#000000;stroke-width:0.5;stroke-linejoin:round"
       id="path2597"
       d="M 43.603424,84.372155 L 50.977424,88.990155 L 53.408424,83.175155 L 48.187424,80.139155 L 43.603424,84.372155 z" />
    <path
       style="fill:#e10000;stroke:#000000;stroke-width:0.5;stroke-linejoin:round"
       id="path2599"
       d="M 50.977424,88.989155 L 53.797424,89.758155 L 56.291424,83.216155 L 53.407424,83.174155 L 50.977424,88.989155 z" />
    <path
       style="fill:#960000;stroke:#000000;stroke-width:0.5;stroke-linejoin:round"
       id="path2601"
       d="M 43.603424,84.372155 L 50.707424,92.794155 L 53.916424,91.897155 L 50.976424,88.990155 L 43.603424,84.372155 z" />
    <path
       style="fill:#e50000;stroke:#000000;stroke-width:0.5;stroke-linejoin:round"
       id="path2603"
       d="M 53.797424,89.759155 L 68.214424,88.988155 L 61.468424,82.490155 L 56.290424,83.217155 L 53.797424,89.759155 z" />
    <path
       style="fill:#a50000;stroke:#000000;stroke-width:0.5;stroke-linejoin:round"
       id="path2605"
       d="M 48.186424,80.139155 L 52.897424,74.452155 L 49.575424,68.638155 L 41.856424,73.940155 L 48.186424,80.139155 z" />
    <path
       style="fill:#ad0000;stroke:#000000;stroke-width:0.5;stroke-linejoin:round"
       id="path2607"
       d="M 50.707424,92.794155 L 53.187424,94.418155 L 56.097424,92.666155 L 53.916424,91.897155 L 50.707424,92.794155 z" />
    <path
       style="fill:#be0000;stroke:#000000;stroke-width:0.5;stroke-linejoin:round"
       id="path2609"
       d="M 43.603424,84.372155 L 37.548424,78.044155 L 30.143424,88.777155 L 50.707424,92.794155 L 43.603424,84.372155 z" />
    <path
       style="fill:#d50000;stroke:#000000;stroke-width:0.5;stroke-linejoin:round"
       id="path2611"
       d="M 68.428424,95.059155 L 68.214424,88.988155 L 53.797424,89.759155 L 56.097424,92.666155 L 68.428424,95.059155 z" />
    <path
       style="fill:#bf0000;stroke:#000000;stroke-width:0.5;stroke-linejoin:round"
       id="path2613"
       d="M 37.548424,78.044155 L 43.603424,84.372155 L 48.186424,80.139155 L 41.855424,73.939155 L 37.548424,78.044155 z" />
    <path
       style="fill:#b60000;stroke:#000000;stroke-width:0.5;stroke-linejoin:round"
       id="path2615"
       d="M 37.548424,78.044155 L 32.859424,71.973155 L 14.517424,79.756155 L 30.143424,88.777155 L 37.548424,78.044155 z" />
    <path
       style="fill:#7a0000;stroke:#000000;stroke-width:0.5;stroke-linejoin:round"
       id="path2617"
       d="M 26.807424,95.619155 L 34.311424,99.765155 L 11.052424,83.561155 L 3.7714243,81.895155 L 26.807424,95.619155 z" />
    <path
       style="fill:#bd0000;stroke:#000000;stroke-width:0.5;stroke-linejoin:round"
       id="path2619"
       d="M 68.214424,88.988155 L 62.077424,73.340155 L 55.717424,75.222155 L 61.468424,82.491155 L 68.214424,88.988155 z" />
    <path
       style="fill:#9b0000;stroke:#000000;stroke-width:0.5;stroke-linejoin:round"
       id="path2621"
       d="M 30.144424,88.777155 L 33.327424,89.674155 L 53.188424,94.418155 L 50.708424,92.794155 L 30.144424,88.777155 z" />
    <path
       style="fill:#9b0000;stroke:#000000;stroke-width:0.5;stroke-linejoin:round"
       id="path2623"
       d="M 52.897424,74.452155 L 55.717424,75.221155 L 52.183424,68.807155 L 49.575424,68.637155 L 52.897424,74.452155 z" />
    <path
       style="fill:#bd0000;stroke:#000000;stroke-width:0.5;stroke-linejoin:round"
       id="path2625"
       d="M 36.804424,67.740155 L 41.856424,73.939155 L 49.575424,68.637155 L 43.820424,63.164155 L 36.804424,67.740155 z" />
    <path
       style="fill:#b60000;stroke:#000000;stroke-width:0.5;stroke-linejoin:round"
       id="path2627"
       d="M 32.859424,71.973155 L 37.548424,78.044155 L 41.856424,73.939155 L 36.804424,67.740155 L 32.859424,71.973155 z" />
    <path
       style="fill:#740000;stroke:#000000;stroke-width:0.5;stroke-linejoin:round"
       id="path2629"
       d="M 88.852424,110.40915 L 107.68042,114.12415 L 78.224424,101.21215 L 78.185424,104.63615 L 88.852424,110.40915 z" />
    <path
       style="fill:#600000;stroke:#000000;stroke-width:0.5;stroke-linejoin:round"
       id="path2631"
       d="M 182.87542,187.27615 L 181.32142,182.91315 L 176.54142,191.12315 L 178.86742,192.23615 L 182.87542,187.27615 z" />
    <path
       style="fill:#c60000;stroke:#000000;stroke-width:0.5;stroke-linejoin:round"
       id="path2633"
       d="M 57.928424,39.649155 L 69.836424,36.354155 L 80.075424,22.715155 L 67.868424,25.155155 L 57.928424,39.649155 z" />
    <path
       style="fill:#9f0000;stroke:#000000;stroke-width:0.5;stroke-linejoin:round"
       id="path2635"
       d="M 60.912424,100.06115 L 65.173424,106.73115 L 78.186424,104.63615 L 68.428424,95.058155 L 60.912424,100.06115 z" />
    <path
       style="fill:#c10000;stroke:#000000;stroke-width:0.5;stroke-linejoin:round"
       id="path2637"
       d="M 69.835424,36.353155 L 57.927424,39.648155 L 53.967424,63.807155 L 61.548424,61.837155 L 69.835424,36.353155 z" />
    <path
       style="fill:#d40000;stroke:#000000;stroke-width:0.5;stroke-linejoin:round"
       id="path2639"
       d="M 36.804424,67.740155 L 43.820424,63.165155 L 33.838424,58.377155 L 30.644424,63.850155 L 36.804424,67.740155 z" />
    <path
       style="fill:#a20000;stroke:#000000;stroke-width:0.5;stroke-linejoin:round"
       id="path2641"
       d="M 56.097424,92.666155 L 53.187424,94.418155 L 60.912424,100.06115 L 68.428424,95.059155 L 56.097424,92.666155 z" />
    <path
       style="fill:#cf0000;stroke:#000000;stroke-width:0.5;stroke-linejoin:round"
       id="path2643"
       d="M 18.550424,55.770155 L 30.644424,63.850155 L 33.838424,58.377155 L 18.550424,55.770155 z" />
    <path
       style="fill:#830000;stroke:#000000;stroke-width:0.5;stroke-linejoin:round"
       id="path2645"
       d="M 32.859424,71.973155 L 28.213424,69.664155 L 11.601424,65.091155 L 14.518424,79.757155 L 32.859424,71.973155 z" />
    <path
       style="fill:#6d0000;stroke:#000000;stroke-width:0.5;stroke-linejoin:round"
       id="path2647"
       d="M 194.78042,117.49715 L 211.95742,108.17615 L 215.44542,100.86315 L 198.89542,111.08115 L 194.78042,117.49715 z" />
    <path
       style="fill:#a10000;stroke:#000000;stroke-width:0.5;stroke-linejoin:round"
       id="path2649"
       d="M 33.327424,89.674155 L 18.317424,79.670155 L 18.088424,81.765155 L 36.553424,94.334155 L 33.327424,89.674155 z" />
    <path
       style="fill:#ab0000;stroke:#000000;stroke-width:0.5;stroke-linejoin:round"
       id="path2651"
       d="M 28.214424,69.664155 L 32.860424,71.973155 L 36.804424,67.740155 L 30.644424,63.849155 L 28.214424,69.664155 z" />
    <path
       style="fill:#c00000;stroke:#000000;stroke-width:0.5;stroke-linejoin:round"
       id="path2653"
       d="M 68.214424,88.988155 L 68.428424,95.059155 L 72.706424,94.545155 L 68.214424,88.988155 z" />
    <path
       style="fill:#990000;stroke:#000000;stroke-width:0.5;stroke-linejoin:round"
       id="path2655"
       d="M 49.575424,68.637155 L 52.183424,68.807155 L 47.131424,62.608155 L 43.819424,63.165155 L 49.575424,68.637155 z" />
    <path
       style="fill:#7a0000;stroke:#000000;stroke-width:0.5;stroke-linejoin:round"
       id="path2657"
       d="M 192.25742,112.11015 L 173.89442,119.89215 L 172.63142,124.46715 L 192.25742,112.11015 z" />
    <path
       style="fill:#750000;stroke:#000000;stroke-width:0.5;stroke-linejoin:round"
       id="path2659"
       d="M 218.26442,88.891155 L 224.52142,86.668155 L 229.75342,71.574155 L 220.43942,78.714155 L 218.26442,88.891155 z" />
    <path
       style="fill:#930000;stroke:#000000;stroke-width:0.5;stroke-linejoin:round"
       id="path2661"
       d="M 43.820424,63.165155 L 47.132424,62.608155 L 37.789424,57.820155 L 33.838424,58.377155 L 43.820424,63.165155 z" />
    <path
       style="fill:#770000;stroke:#000000;stroke-width:0.5;stroke-linejoin:round"
       id="path2663"
       d="M 33.838424,58.377155 L 37.789424,57.820155 L 22.138424,55.085155 L 18.551424,55.770155 L 33.838424,58.377155 z" />
    <path
       style="fill:#980000;stroke:#000000;stroke-width:0.5;stroke-linejoin:round"
       id="path2665"
       d="M 236.88342,65.461155 L 226.64042,60.886155 L 228.87042,69.094155 L 229.75342,71.575155 L 236.88342,65.461155 z" />
    <path
       style="fill:#5d0000;stroke:#000000;stroke-width:0.5;stroke-linejoin:round"
       id="path2667"
       d="M 178.86742,192.23615 L 176.54142,191.12315 L 170.66042,192.57715 L 167.98442,194.93015 L 178.86742,192.23615 z" />
    <path
       style="fill:#d60000;stroke:#000000;stroke-width:0.5;stroke-linejoin:round"
       id="path2669"
       d="M 28.214424,69.664155 L 30.644424,63.849155 L 18.550424,55.769155 L 11.601424,65.090155 L 28.214424,69.664155 z" />
    <path
       style="fill:#b40000;stroke:#000000;stroke-width:0.5;stroke-linejoin:round"
       id="path2671"
       d="M 55.717424,75.221155 L 62.077424,73.339155 L 58.947424,65.343155 L 52.183424,68.807155 L 55.717424,75.221155 z" />
    <path
       style="fill:#da0000;stroke:#000000;stroke-width:0.5;stroke-linejoin:round"
       id="path2673"
       d="M 53.187424,94.418155 L 33.326424,89.674155 L 36.553424,94.334155 L 60.912424,100.06215 L 53.187424,94.418155 z" />
    <path
       style="fill:#650000;stroke:#000000;stroke-width:0.5;stroke-linejoin:round"
       id="path2675"
       d="M 185.01642,169.74515 L 182.09442,172.39415 L 181.32142,182.91315 L 182.87542,187.27615 L 185.01642,169.74515 z" />
    <path
       style="fill:#860000;stroke:#000000;stroke-width:0.5;stroke-linejoin:round"
       id="path2677"
       d="M 207.46342,100.90515 L 215.44542,100.86315 L 224.52142,86.668155 L 218.26442,88.891155 L 207.46342,100.90515 z" />
    <path
       style="fill:#bf0000;stroke:#000000;stroke-width:0.5;stroke-linejoin:round"
       id="path2679"
       d="M 60.912424,100.06115 L 36.553424,94.333155 L 34.311424,99.764155 L 65.173424,106.73115 L 60.912424,100.06115 z" />
    <path
       style="fill:#c60000;stroke:#000000;stroke-width:0.5;stroke-linejoin:round"
       id="path2681"
       d="M 36.553424,94.334155 L 18.088424,81.765155 L 11.052424,83.561155 L 34.311424,99.764155 L 36.553424,94.334155 z" />
    <path
       style="fill:#830000;stroke:#000000;stroke-width:0.5;stroke-linejoin:round"
       id="path2683"
       d="M 68.428424,95.059155 L 78.186424,104.63715 L 78.225424,101.21315 L 72.706424,94.545155 L 68.428424,95.059155 z" />
    <path
       style="fill:#a70000;stroke:#000000;stroke-width:0.5;stroke-linejoin:round"
       id="path2685"
       d="M 52.183424,68.807155 L 58.947424,65.343155 L 52.768424,58.673155 L 47.131424,62.608155 L 52.183424,68.807155 z" />
    <path
       style="fill:#be0000;stroke:#000000;stroke-width:0.5;stroke-linejoin:round"
       id="path2687"
       d="M 3.7714243,81.895155 L 11.052424,83.561155 L 7.8424243,58.976155 L 2.7374243,59.875155 L 3.7714243,81.895155 z" />
    <path
       style="fill:#970000;stroke:#000000;stroke-width:0.5;stroke-linejoin:round"
       id="path2689"
       d="M 22.137424,55.085155 L 37.788424,57.820155 L 42.275424,52.432155 L 23.680424,48.585155 L 22.137424,55.085155 z" />
    <path
       style="fill:#ae0000;stroke:#000000;stroke-width:0.5;stroke-linejoin:round"
       id="path2691"
       d="M 47.131424,62.608155 L 52.768424,58.673155 L 42.275424,52.431155 L 37.788424,57.819155 L 47.131424,62.608155 z" />
    <path
       style="fill:#630000;stroke:#000000;stroke-width:0.5;stroke-linejoin:round"
       id="path2693"
       d="M 220.44042,78.715155 L 229.75442,71.575155 L 228.87142,69.094155 L 218.61242,71.703155 L 220.44042,78.715155 z" />
    <path
       style="fill:#a40000;stroke:#000000;stroke-width:0.5;stroke-linejoin:round"
       id="path2695"
       d="M 68.214424,88.988155 L 72.706424,94.545155 L 65.557424,65.128155 L 62.078424,73.339155 L 68.214424,88.988155 z" />
    <path
       style="fill:#6b0000;stroke:#000000;stroke-width:0.5;stroke-linejoin:round"
       id="path2697"
       d="M 15.763424,65.133155 L 22.138424,55.085155 L 23.681424,48.585155 L 15.345424,62.139155 L 15.763424,65.133155 z" />
    <path
       style="fill:#730000;stroke:#000000;stroke-width:0.5;stroke-linejoin:round"
       id="path2699"
       d="M 218.26442,88.891155 L 220.44042,78.715155 L 217.71942,80.083155 L 215.94742,88.677155 L 218.26442,88.891155 z" />
    <path
       style="fill:#aa0000;stroke:#000000;stroke-width:0.5;stroke-linejoin:round"
       id="path2701"
       d="M 52.769424,58.674155 L 58.948424,65.344155 L 61.550424,61.838155 L 54.984424,54.057155 L 52.769424,58.674155 z" />
    <path
       style="fill:#680000;stroke:#000000;stroke-width:0.5;stroke-linejoin:round"
       id="path2703"
       d="M 211.52042,70.634155 L 214.68942,84.188155 L 214.71442,82.394155 L 210.65142,64.478155 L 211.52042,70.634155 z" />
    <path
       style="fill:#dc0000;stroke:#000000;stroke-width:0.5;stroke-linejoin:round"
       id="path2705"
       d="M 2.7374243,59.874155 L 7.8424243,58.975155 L 18.968424,41.531155 L 11.554424,43.114155 L 2.7374243,59.874155 z" />
    <path
       style="fill:#9c0000;stroke:#000000;stroke-width:0.5;stroke-linejoin:round"
       id="path2707"
       d="M 107.68042,114.12415 L 122.59342,134.73215 L 135.20842,128.91415 L 107.68042,114.12415 z" />
    <path
       style="fill:#ad0000;stroke:#000000;stroke-width:0.5;stroke-linejoin:round"
       id="path2709"
       d="M 18.088424,81.765155 L 15.344424,62.140155 L 7.8424243,58.976155 L 11.052424,83.561155 L 18.088424,81.765155 z" />
    <path
       style="fill:#a40000;stroke:#000000;stroke-width:0.5;stroke-linejoin:round"
       id="path2711"
       d="M 58.947424,65.343155 L 62.077424,73.339155 L 65.556424,65.128155 L 61.548424,61.837155 L 58.947424,65.343155 z" />
    <path
       style="fill:#640000;stroke:#000000;stroke-width:0.5;stroke-linejoin:round"
       id="path2713"
       d="M 183.93542,145.75915 L 182.10342,148.79315 L 182.09442,172.39515 L 185.01642,169.74615 L 183.93542,145.75915 z" />
    <path
       style="fill:#9d0000;stroke:#000000;stroke-width:0.5;stroke-linejoin:round"
       id="path2715"
       d="M 166.63342,51.993155 L 197.42042,54.047155 L 190.38642,20.315155 L 156.24042,16.851155 L 166.63342,51.993155 z" />
    <path
       style="fill:#c80000;stroke:#000000;stroke-width:0.5;stroke-linejoin:round"
       id="path2717"
       d="M 52.769424,58.674155 L 54.983424,54.056155 L 41.059424,46.233155 L 42.276424,52.432155 L 52.769424,58.674155 z" />
    <path
       style="fill:#8f0000;stroke:#000000;stroke-width:0.5;stroke-linejoin:round"
       id="path2719"
       d="M 122.59342,134.73315 L 129.31942,138.45215 L 132.26342,135.07215 L 135.20842,128.91515 L 122.59342,134.73315 z" />
    <path
       style="fill:#d00000;stroke:#000000;stroke-width:0.5;stroke-linejoin:round"
       id="path2721"
       d="M 23.680424,48.585155 L 42.275424,52.432155 L 41.058424,46.233155 L 18.968424,41.531155 L 23.680424,48.585155 z" />
    <path
       style="fill:#7c0000;stroke:#000000;stroke-width:0.5;stroke-linejoin:round"
       id="path2723"
       d="M 220.44042,78.715155 L 218.61142,71.703155 L 216.67742,74.396155 L 217.71942,80.083155 L 220.44042,78.715155 z" />
    <path
       style="fill:#650000;stroke:#000000;stroke-width:0.5;stroke-linejoin:round"
       id="path2725"
       d="M 167.98342,194.92915 L 170.65942,192.57615 L 157.47142,194.15815 L 154.24342,196.76715 L 167.98342,194.92915 z" />
    <path
       style="fill:#6f0000;stroke:#000000;stroke-width:0.5;stroke-linejoin:round"
       id="path2727"
       d="M 207.46342,100.90515 L 218.26442,88.890155 L 215.94742,88.676155 L 208.68642,98.039155 L 207.46342,100.90515 z" />
    <path
       style="fill:#bb0000;stroke:#000000;stroke-width:0.5;stroke-linejoin:round"
       id="path2729"
       d="M 102.70542,8.0481547 L 116.23842,20.315155 L 156.24142,16.851155 L 139.86442,2.8311547 L 102.70542,8.0481547 z" />
    <path
       style="fill:#760000;stroke:#000000;stroke-width:0.5;stroke-linejoin:round"
       id="path2775"
       d="M 209.52842,77.730155 L 211.01742,85.598155 L 214.68942,84.188155 L 211.52042,70.634155 L 209.52842,77.730155 z" />
    <path
       style="fill:#660000;stroke:#000000;stroke-width:0.5;stroke-linejoin:round"
       id="path2755"
       d="M 211.01742,85.597155 L 208.18342,92.993155 L 209.08542,98.253155 L 214.68942,84.186155 L 211.01742,85.597155 z" />
    <path
       style="fill:#be0000;stroke:#000000;stroke-width:0.5;stroke-linejoin:round"
       id="path2731"
       d="M 215.94742,88.676155 L 217.71942,80.082155 L 214.37142,80.552155 L 213.15542,87.094155 L 215.94742,88.676155 z" />
    <path
       style="fill:#7c0000;stroke:#000000;stroke-width:0.5;stroke-linejoin:round"
       id="path2733"
       d="M 198.94442,105.77915 L 198.89542,111.08115 L 215.44542,100.86315 L 207.46342,100.90515 L 198.94442,105.77915 z" />
    <path
       style="fill:#c50000;stroke:#000000;stroke-width:0.5;stroke-linejoin:round"
       id="path2735"
       d="M 15.344424,62.139155 L 23.680424,48.585155 L 18.968424,41.531155 L 7.8424243,58.975155 L 15.344424,62.139155 z" />
    <path
       style="fill:#510000;stroke:#000000;stroke-width:0.5;stroke-linejoin:round"
       id="path2737"
       d="M 209.08542,98.254155 L 197.88142,104.58215 L 192.70842,108.00415 L 207.51242,100.09415 L 209.08542,98.254155 z" />
    <path
       style="fill:#ac0000;stroke:#000000;stroke-width:0.5;stroke-linejoin:round"
       id="path2739"
       d="M 217.71942,80.083155 L 216.67742,74.396155 L 213.26542,75.593155 L 214.37042,80.553155 L 217.71942,80.083155 z" />
    <path
       style="fill:#730000;stroke:#000000;stroke-width:0.5;stroke-linejoin:round"
       id="path2799"
       d="M 208.18342,92.994155 L 201.62242,96.158155 L 197.88242,104.58215 L 209.08642,98.254155 L 208.18342,92.994155 z" />
    <path
       style="fill:#b40000;stroke:#000000;stroke-width:0.5;stroke-linejoin:round"
       id="path2741"
       d="M 208.68642,98.040155 L 215.94742,88.677155 L 213.15542,87.095155 L 206.80842,96.330155 L 208.68642,98.040155 z" />
    <path
       style="fill:#760000;stroke:#000000;stroke-width:0.5;stroke-linejoin:round"
       id="path2743"
       d="M 171.22842,185.13615 L 165.64242,189.24015 L 170.66042,192.57615 L 176.54142,191.12215 L 171.22842,185.13615 z" />
    <path
       style="fill:#6b0000;stroke:#000000;stroke-width:0.5;stroke-linejoin:round"
       id="path2745"
       d="M 183.93542,145.75915 L 179.75942,133.87315 L 180.63542,136.43615 L 182.10342,148.79215 L 183.93542,145.75915 z" />
    <path
       style="fill:#790000;stroke:#000000;stroke-width:0.5;stroke-linejoin:round"
       id="path2747"
       d="M 172.64142,174.61715 L 171.22842,185.13615 L 176.54142,191.12315 L 181.32142,182.91315 L 172.64142,174.61715 z" />
    <path
       style="fill:#650000;stroke:#000000;stroke-width:0.5;stroke-linejoin:round"
       id="path2749"
       d="M 176.67342,122.37115 L 194.78042,117.49715 L 198.89542,111.08115 L 182.61642,118.47615 L 176.67342,122.37115 z" />
    <path
       style="fill:#8d0000;stroke:#000000;stroke-width:0.5;stroke-linejoin:round"
       id="path2751"
       d="M 226.64142,60.885155 L 212.61142,51.008155 L 212.77642,57.890155 L 228.87042,69.093155 L 226.64142,60.885155 z" />
    <path
       style="fill:#890000;stroke:#000000;stroke-width:0.5;stroke-linejoin:round"
       id="path2753"
       d="M 167.83542,176.37115 L 161.71242,185.30815 L 166.23242,181.80215 L 167.83542,176.37115 z" />
    <path
       style="fill:#850000;stroke:#000000;stroke-width:0.5;stroke-linejoin:round"
       id="path2757"
       d="M 172.64142,174.61715 L 181.32142,182.91215 L 182.09442,172.39315 L 173.53642,171.70815 L 172.64142,174.61715 z" />
    <path
       style="fill:#620000;stroke:#000000;stroke-width:0.5;stroke-linejoin:round"
       id="path2759"
       d="M 198.94442,105.77915 L 207.46342,100.90515 L 208.68642,98.039155 L 201.14642,102.05815 L 198.94442,105.77915 z" />
    <path
       style="fill:#e40000;stroke:#000000;stroke-width:0.5;stroke-linejoin:round"
       id="path2761"
       d="M 91.320424,31.177155 L 116.23742,20.315155 L 102.70542,8.0481547 L 80.075424,22.715155 L 91.320424,31.177155 z" />
    <path
       style="fill:#800000;stroke:#000000;stroke-width:0.5;stroke-linejoin:round"
       id="path2763"
       d="M 165.64242,189.24015 L 160.10142,189.83915 L 157.47242,194.15815 L 170.66042,192.57615 L 165.64242,189.24015 z" />
    <path
       style="fill:#940000;stroke:#000000;stroke-width:0.5;stroke-linejoin:round"
       id="path2765"
       d="M 201.34242,65.331155 L 211.52142,70.634155 L 210.65242,64.478155 L 197.13042,57.850155 L 201.34242,65.331155 z" />
    <path
       style="fill:#de0000;stroke:#000000;stroke-width:0.5;stroke-linejoin:round"
       id="path2767"
       d="M 164.12842,187.65915 L 169.43842,183.68215 L 166.23142,181.80215 L 161.71142,185.30815 L 164.12842,187.65915 z" />
    <path
       style="fill:#b20000;stroke:#000000;stroke-width:0.5;stroke-linejoin:round"
       id="path2769"
       d="M 176.50242,62.810155 L 205.40942,53.190155 L 197.42042,54.047155 L 166.63342,51.993155 L 176.50242,62.810155 z" />
    <path
       style="fill:#920000;stroke:#000000;stroke-width:0.5;stroke-linejoin:round"
       id="path2771"
       d="M 159.54442,179.15115 L 157.81342,186.03515 L 161.71242,185.30815 L 167.83542,176.37115 L 159.54442,179.15115 z" />
    <path
       style="fill:#720000;stroke:#000000;stroke-width:0.5;stroke-linejoin:round"
       id="path2773"
       d="M 157.47242,194.15815 L 143.81342,192.57615 L 138.58042,194.92915 L 154.24442,196.76715 L 157.47242,194.15815 z" />
    <path
       style="fill:#860000;stroke:#000000;stroke-width:0.5;stroke-linejoin:round"
       id="path2779"
       d="M 218.61142,71.702155 L 228.87042,69.093155 L 212.77642,57.890155 L 207.60642,66.785155 L 218.61142,71.702155 z" />
    <path
       style="fill:#a30000;stroke:#000000;stroke-width:0.5;stroke-linejoin:round"
       id="path2781"
       d="M 72.706424,94.545155 L 78.225424,101.21315 L 70.217424,74.790155 L 65.558424,65.128155 L 72.706424,94.545155 z" />
    <path
       style="fill:#be0000;stroke:#000000;stroke-width:0.5;stroke-linejoin:round"
       id="path2783"
       d="M 201.14542,102.05915 L 208.68542,98.040155 L 206.80842,96.330155 L 200.61142,99.622155 L 201.14542,102.05915 z" />
    <path
       style="fill:#c50000;stroke:#000000;stroke-width:0.5;stroke-linejoin:round"
       id="path2785"
       d="M 169.43842,183.68215 L 170.80642,176.67015 L 167.83542,176.37215 L 166.23242,181.80215 L 169.43842,183.68215 z" />
    <path
       style="fill:#be0000;stroke:#000000;stroke-width:0.5;stroke-linejoin:round"
       id="path2787"
       d="M 160.22942,188.38515 L 164.12842,187.65815 L 161.71242,185.30715 L 157.81342,186.03415 L 160.22942,188.38515 z" />
    <path
       style="fill:#970000;stroke:#000000;stroke-width:0.5;stroke-linejoin:round"
       id="path2789"
       d="M 119.61542,187.27815 L 125.17442,192.23615 L 122.79042,187.27615 L 123.75142,168.12315 L 119.61542,187.27815 z" />
    <path
       style="fill:#bf0000;stroke:#000000;stroke-width:0.5;stroke-linejoin:round"
       id="path2791"
       d="M 69.835424,36.353155 L 61.548424,61.837155 L 65.556424,65.128155 L 80.652424,45.415155 L 69.835424,36.353155 z" />
    <path
       style="fill:#a20000;stroke:#000000;stroke-width:0.5;stroke-linejoin:round"
       id="path2793"
       d="M 165.64242,189.24015 L 171.22842,185.13615 L 169.43842,183.68215 L 164.12842,187.65915 L 165.64242,189.24015 z" />
    <path
       style="fill:#dd0000;stroke:#000000;stroke-width:0.5;stroke-linejoin:round"
       id="path2795"
       d="M 69.835424,36.353155 L 80.653424,45.414155 L 91.320424,31.177155 L 80.074424,22.715155 L 69.835424,36.353155 z" />
    <path
       style="fill:#bb0000;stroke:#000000;stroke-width:0.5;stroke-linejoin:round"
       id="path2801"
       d="M 160.10142,189.84015 L 165.64242,189.24115 L 164.12842,187.65915 L 160.22942,188.38615 L 160.10142,189.84015 z" />
    <path
       style="fill:#a60000;stroke:#000000;stroke-width:0.5;stroke-linejoin:round"
       id="path2803"
       d="M 154.04242,185.30815 L 156.45842,187.65915 L 160.22942,188.38615 L 157.81342,186.03515 L 154.04242,185.30815 z" />
    <path
       style="fill:#a40000;stroke:#000000;stroke-width:0.5;stroke-linejoin:round"
       id="path2805"
       d="M 171.22842,185.13615 L 172.64142,174.61715 L 170.80742,176.66915 L 169.43942,183.68115 L 171.22842,185.13615 z" />
    <path
       style="fill:#8e0000;stroke:#000000;stroke-width:0.5;stroke-linejoin:round"
       id="path2807"
       d="M 182.10342,148.79215 L 173.05342,149.43315 L 173.53642,171.70915 L 182.09442,172.39415 L 182.10342,148.79215 z" />
    <path
       style="fill:#980000;stroke:#000000;stroke-width:0.5;stroke-linejoin:round"
       id="path2809"
       d="M 154.04242,185.30815 L 157.81342,186.03515 L 159.54442,179.15115 L 152.49342,176.37215 L 154.04242,185.30815 z" />
    <path
       style="fill:#b80000;stroke:#000000;stroke-width:0.5;stroke-linejoin:round"
       id="path2811"
       d="M 123.75042,168.12315 L 122.78942,187.27615 L 127.48742,169.74515 L 129.04042,148.62515 L 123.75042,168.12315 z" />
    <path
       style="fill:#990000;stroke:#000000;stroke-width:0.5;stroke-linejoin:round"
       id="path2813"
       d="M 135.20842,128.91415 L 138.11342,124.46715 L 120.66542,112.11015 L 107.68042,114.12415 L 135.20842,128.91415 z" />
    <path
       style="fill:#800000;stroke:#000000;stroke-width:0.5;stroke-linejoin:round"
       id="path2815"
       d="M 197.88142,104.58215 L 187.33942,99.151155 L 178.82242,101.24815 L 192.70842,108.00415 L 197.88142,104.58215 z" />
    <path
       style="fill:#7e0000;stroke:#000000;stroke-width:0.5;stroke-linejoin:round"
       id="path2817"
       d="M 157.47242,194.15815 L 160.10142,189.83915 L 155.41542,189.24015 L 143.81342,192.57615 L 157.47242,194.15815 z" />
    <path
       style="fill:#9a0000;stroke:#000000;stroke-width:0.5;stroke-linejoin:round"
       id="path2819"
       d="M 150.89142,181.80115 L 154.04242,185.30715 L 152.49442,176.37015 L 150.89142,181.80115 z" />
    <path
       style="fill:#a30000;stroke:#000000;stroke-width:0.5;stroke-linejoin:round"
       id="path2821"
       d="M 156.45842,187.65915 L 155.41542,189.24115 L 160.10142,189.84015 L 160.22942,188.38615 L 156.45842,187.65915 z" />
    <path
       style="fill:#770000;stroke:#000000;stroke-width:0.5;stroke-linejoin:round"
       id="path2823"
       d="M 143.81342,192.57615 L 138.18842,191.12215 L 125.17342,192.23515 L 138.57942,194.92815 L 143.81342,192.57615 z" />
    <path
       style="fill:#b40000;stroke:#000000;stroke-width:0.5;stroke-linejoin:round"
       id="path2825"
       d="M 129.04042,148.62615 L 127.48742,169.74615 L 132.79842,145.75915 L 132.26342,135.07215 L 129.04042,148.62615 z" />
    <path
       style="fill:#9b0000;stroke:#000000;stroke-width:0.5;stroke-linejoin:round"
       id="path2827"
       d="M 203.48042,75.079155 L 209.52842,77.730155 L 211.52042,70.634155 L 201.34142,65.331155 L 203.48042,75.079155 z" />
    <path
       style="fill:#6d0000;stroke:#000000;stroke-width:0.5;stroke-linejoin:round"
       id="path2797"
       d="M 216.67742,74.396155 L 209.19042,71.316155 L 207.39742,71.658155 L 213.26642,75.593155 L 216.67742,74.396155 z" />
    <path
       style="fill:#540000;stroke:#000000;stroke-width:0.5;stroke-linejoin:round"
       id="path2829"
       d="M 172.64142,174.61715 L 163.30842,178.97815 L 162.51742,179.44915 L 170.80742,176.67015 L 172.64142,174.61715 z" />
    <path
       style="fill:#890000;stroke:#000000;stroke-width:0.5;stroke-linejoin:round"
       id="path2831"
       d="M 187.33942,99.151155 L 182.61542,118.47615 L 198.89442,111.08115 L 198.94342,105.77915 L 187.33942,99.151155 z" />
    <path
       style="fill:#a30000;stroke:#000000;stroke-width:0.5;stroke-linejoin:round"
       id="path2833"
       d="M 163.30742,178.97815 L 172.64042,174.61715 L 173.53642,171.70915 L 164.01242,170.98215 L 163.30742,178.97815 z" />
    <path
       style="fill:#c00000;stroke:#000000;stroke-width:0.5;stroke-linejoin:round"
       id="path2835"
       d="M 135.20842,128.91415 L 132.26342,135.07115 L 132.79842,145.75815 L 137.57142,133.87215 L 135.20842,128.91415 z" />
    <path
       style="fill:#840000;stroke:#000000;stroke-width:0.5;stroke-linejoin:round"
       id="path2837"
       d="M 107.68042,114.12415 L 120.66542,112.11015 L 105.46642,102.49115 L 78.224424,101.21315 L 107.68042,114.12415 z" />
    <path
       style="fill:#900000;stroke:#000000;stroke-width:0.5;stroke-linejoin:round"
       id="path2839"
       d="M 174.61142,134.76815 L 173.05342,149.43415 L 182.10342,148.79315 L 180.63542,136.43715 L 174.61142,134.76815 z" />
    <path
       style="fill:#890000;stroke:#000000;stroke-width:0.5;stroke-linejoin:round"
       id="path2863"
       d="M 201.62242,96.158155 L 196.21342,93.507155 L 187.33942,99.152155 L 197.88142,104.58315 L 201.62242,96.158155 z" />
    <path
       style="fill:#870000;stroke:#000000;stroke-width:0.5;stroke-linejoin:round"
       id="path2841"
       d="M 187.33942,99.151155 L 198.94342,105.77915 L 201.14542,102.05915 L 191.20242,98.339155 L 187.33942,99.151155 z" />
    <path
       style="fill:#830000;stroke:#000000;stroke-width:0.5;stroke-linejoin:round"
       id="path2843"
       d="M 204.70042,86.751155 L 209.48542,93.978155 L 212.38342,85.854155 L 204.70042,86.751155 z" />
    <path
       style="fill:#700000;stroke:#000000;stroke-width:0.5;stroke-linejoin:round"
       id="path2845"
       d="M 159.54442,179.15115 L 162.51642,179.44915 L 155.46542,176.67015 L 152.49342,176.37215 L 159.54442,179.15115 z" />
    <path
       style="fill:#c50000;stroke:#000000;stroke-width:0.5;stroke-linejoin:round"
       id="path2847"
       d="M 138.11342,124.46715 L 135.20842,128.91415 L 137.57142,133.87215 L 140.00142,128.05715 L 138.11342,124.46715 z" />
    <path
       style="fill:#980000;stroke:#000000;stroke-width:0.5;stroke-linejoin:round"
       id="path2849"
       d="M 191.20242,98.339155 L 201.14542,102.05915 L 200.61042,99.622155 L 191.51842,96.500155 L 191.20242,98.339155 z" />
    <path
       style="fill:#880000;stroke:#000000;stroke-width:0.5;stroke-linejoin:round"
       id="path2851"
       d="M 204.70042,86.751155 L 212.38342,85.854155 L 210.95942,77.260155 L 204.70042,86.751155 z" />
    <path
       style="fill:#940000;stroke:#000000;stroke-width:0.5;stroke-linejoin:round"
       id="path2853"
       d="M 143.81342,192.57615 L 155.41542,189.24015 L 152.05242,185.13615 L 138.18942,191.12315 L 143.81342,192.57615 z" />
    <path
       style="fill:#920000;stroke:#000000;stroke-width:0.5;stroke-linejoin:round"
       id="path2855"
       d="M 154.09842,183.68215 L 152.05242,185.13615 L 155.41542,189.24015 L 156.45842,187.65815 L 154.09842,183.68215 z" />
    <path
       style="fill:#850000;stroke:#000000;stroke-width:0.5;stroke-linejoin:round"
       id="path2857"
       d="M 178.68342,129.08115 L 174.61142,134.76815 L 180.63542,136.43615 L 179.93342,129.89415 L 178.68342,129.08115 z" />
    <path
       style="fill:#970000;stroke:#000000;stroke-width:0.5;stroke-linejoin:round"
       id="path2859"
       d="M 207.60642,66.785155 L 200.70742,63.535155 L 201.68942,68.153155 L 209.19042,71.317155 L 207.60642,66.785155 z" />
    <path
       style="fill:#cd0000;stroke:#000000;stroke-width:0.5;stroke-linejoin:round"
       id="path2861"
       d="M 189.77442,71.530155 L 201.34142,65.330155 L 197.12942,57.849155 L 181.96242,65.630155 L 189.77442,71.530155 z" />
    <path
       style="fill:#ad0000;stroke:#000000;stroke-width:0.5;stroke-linejoin:round"
       id="path2865"
       d="M 138.18842,191.12315 L 137.85442,182.91315 L 122.78942,187.27615 L 125.17342,192.23615 L 138.18842,191.12315 z" />
    <path
       style="fill:#ba0000;stroke:#000000;stroke-width:0.5;stroke-linejoin:round"
       id="path2897"
       d="M 197.55942,78.242155 L 203.48142,75.078155 L 201.34242,65.330155 L 189.77542,71.530155 L 197.55942,78.242155 z" />
    <path
       style="fill:#a50000;stroke:#000000;stroke-width:0.5;stroke-linejoin:round"
       id="path2867"
       d="M 209.19042,71.316155 L 201.68942,68.152155 L 201.13342,70.204155 L 207.39742,71.658155 L 209.19042,71.316155 z" />
    <path
       style="fill:#d10000;stroke:#000000;stroke-width:0.5;stroke-linejoin:round"
       id="path2869"
       d="M 138.11342,124.46715 L 140.00142,128.05715 L 143.43442,122.37015 L 140.65542,119.89115 L 138.11342,124.46715 z" />
    <path
       style="fill:#850000;stroke:#000000;stroke-width:0.5;stroke-linejoin:round"
       id="path2871"
       d="M 202.58442,97.996155 L 209.48442,93.977155 L 204.69942,86.750155 L 202.58442,97.996155 z" />
    <path
       style="fill:#a00000;stroke:#000000;stroke-width:0.5;stroke-linejoin:round"
       id="path2873"
       d="M 173.53642,171.71015 L 173.05342,149.43415 L 166.66142,149.43415 L 164.01242,170.98415 L 173.53642,171.71015 z" />
    <path
       style="fill:#9b0000;stroke:#000000;stroke-width:0.5;stroke-linejoin:round"
       id="path2875"
       d="M 138.11342,124.46715 L 140.65542,119.89215 L 120.66642,112.11015 L 138.11342,124.46715 z" />
    <path
       style="fill:#820000;stroke:#000000;stroke-width:0.5;stroke-linejoin:round"
       id="path2877"
       d="M 162.51642,179.44915 L 163.30742,178.97815 L 154.74342,174.61715 L 155.46642,176.66915 L 162.51642,179.44915 z" />
    <path
       style="fill:#930000;stroke:#000000;stroke-width:0.5;stroke-linejoin:round"
       id="path2879"
       d="M 204.70042,86.751155 L 210.95942,77.260155 L 204.69942,74.010155 L 204.70042,86.751155 z" />
    <path
       style="fill:#cc0000;stroke:#000000;stroke-width:0.5;stroke-linejoin:round"
       id="path2881"
       d="M 116.23842,20.315155 L 121.99342,54.047155 L 166.63342,51.993155 L 156.24142,16.850155 L 116.23842,20.315155 z" />
    <path
       style="fill:#ba0000;stroke:#000000;stroke-width:0.5;stroke-linejoin:round"
       id="path2883"
       d="M 187.33942,99.151155 L 183.44342,85.341155 L 174.33242,83.931155 L 178.82342,101.24815 L 187.33942,99.151155 z" />
    <path
       style="fill:#a30000;stroke:#000000;stroke-width:0.5;stroke-linejoin:round"
       id="path2885"
       d="M 154.36042,171.71015 L 154.74342,174.61815 L 163.30742,178.97915 L 164.01242,170.98415 L 154.36042,171.71015 z" />
    <path
       style="fill:#8d0000;stroke:#000000;stroke-width:0.5;stroke-linejoin:round"
       id="path2887"
       d="M 155.46542,176.67015 L 154.74242,174.61815 L 152.05142,185.13715 L 154.09742,183.68315 L 155.46542,176.67015 z" />
    <path
       style="fill:#8f0000;stroke:#000000;stroke-width:0.5;stroke-linejoin:round"
       id="path2889"
       d="M 207.60642,66.785155 L 212.77642,57.890155 L 205.13542,49.808155 L 200.70642,63.534155 L 207.60642,66.785155 z" />
    <path
       style="fill:#720000;stroke:#000000;stroke-width:0.5;stroke-linejoin:round"
       id="path2891"
       d="M 177.04342,121.68415 L 178.68342,129.08015 L 179.93342,129.89315 L 182.61542,118.47615 L 177.04342,121.68415 z" />
    <path
       style="fill:#820000;stroke:#000000;stroke-width:0.5;stroke-linejoin:round"
       id="path2893"
       d="M 212.61142,51.008155 L 202.01142,37.239155 L 205.13542,49.808155 L 212.77642,57.890155 L 212.61142,51.008155 z" />
    <path
       style="fill:#ba0000;stroke:#000000;stroke-width:0.5;stroke-linejoin:round"
       id="path2895"
       d="M 138.18842,191.12315 L 152.05142,185.13615 L 154.74242,174.61715 L 137.85442,182.91215 L 138.18842,191.12315 z" />
    <path
       style="fill:#860000;stroke:#000000;stroke-width:0.5;stroke-linejoin:round"
       id="path2899"
       d="M 201.68842,68.153155 L 197.23742,69.136155 L 197.32042,71.189155 L 201.13242,70.206155 L 201.68842,68.153155 z" />
    <path
       style="fill:#a80000;stroke:#000000;stroke-width:0.5;stroke-linejoin:round"
       id="path2901"
       d="M 174.61142,134.76815 L 167.25942,138.40215 L 166.66142,149.43315 L 173.05342,149.43315 L 174.61142,134.76815 z" />
    <path
       style="fill:#b60000;stroke:#000000;stroke-width:0.5;stroke-linejoin:round"
       id="path2903"
       d="M 166.74142,67.770155 L 176.50242,62.810155 L 166.63342,51.993155 L 166.74142,67.770155 z" />
    <path
       style="fill:#d00000;stroke:#000000;stroke-width:0.5;stroke-linejoin:round"
       id="path2905"
       d="M 137.85442,182.91315 L 141.18442,172.39415 L 127.48742,169.74515 L 122.78942,187.27615 L 137.85442,182.91315 z" />
    <path
       style="fill:#d60000;stroke:#000000;stroke-width:0.5;stroke-linejoin:round"
       id="path2907"
       d="M 80.653424,45.414155 L 65.557424,65.128155 L 70.216424,74.790155 L 94.937424,63.413155 L 80.653424,45.414155 z" />
    <path
       style="fill:#b60000;stroke:#000000;stroke-width:0.5;stroke-linejoin:round"
       id="path2921"
       d="M 196.21342,93.507155 L 194.29742,86.238155 L 183.44342,85.341155 L 187.33942,99.151155 L 196.21342,93.507155 z" />
    <path
       style="fill:#940000;stroke:#000000;stroke-width:0.5;stroke-linejoin:round"
       id="path2909"
       d="M 204.70042,86.751155 L 196.60042,94.618155 L 202.58442,97.996155 L 204.70042,86.751155 z" />
    <path
       style="fill:#a60000;stroke:#000000;stroke-width:0.5;stroke-linejoin:round"
       id="path2911"
       d="M 200.70742,63.535155 L 194.97842,64.518155 L 197.23842,69.135155 L 201.68942,68.152155 L 200.70742,63.535155 z" />
    <path
       style="fill:#8d0000;stroke:#000000;stroke-width:0.5;stroke-linejoin:round"
       id="path2913"
       d="M 188.02742,93.849155 L 191.20242,98.338155 L 191.51842,96.500155 L 188.34342,92.011155 L 188.02742,93.849155 z" />
    <path
       style="fill:#a10000;stroke:#000000;stroke-width:0.5;stroke-linejoin:round"
       id="path2915"
       d="M 184.89142,94.918155 L 187.33942,99.151155 L 191.20242,98.338155 L 188.02742,93.849155 L 184.89142,94.918155 z" />
    <path
       style="fill:#ee0000;stroke:#000000;stroke-width:0.5;stroke-linejoin:round"
       id="path2917"
       d="M 183.44342,85.341155 L 189.77542,71.530155 L 181.96342,65.631155 L 174.33242,83.931155 L 183.44342,85.341155 z" />
    <path
       style="fill:#a00000;stroke:#000000;stroke-width:0.5;stroke-linejoin:round"
       id="path2919"
       d="M 166.66142,149.43315 L 160.26942,149.43315 L 154.36042,171.70915 L 164.01242,170.98215 L 166.66142,149.43315 z" />
    <path
       style="fill:#9d0000;stroke:#000000;stroke-width:0.5;stroke-linejoin:round"
       id="path2923"
       d="M 78.225424,101.21315 L 105.46742,102.49115 L 90.933424,86.586155 L 70.216424,74.789155 L 78.225424,101.21315 z" />
    <path
       style="fill:#ec0000;stroke:#000000;stroke-width:0.5;stroke-linejoin:round"
       id="path2925"
       d="M 100.44842,58.154155 L 121.99342,54.048155 L 116.23842,20.316155 L 91.320424,31.177155 L 100.44842,58.154155 z" />
    <path
       style="fill:#a30000;stroke:#000000;stroke-width:0.5;stroke-linejoin:round"
       id="path2927"
       d="M 204.70042,86.751155 L 204.69942,74.010155 L 198.07442,77.901155 L 204.70042,86.751155 z" />
    <path
       style="fill:#b10000;stroke:#000000;stroke-width:0.5;stroke-linejoin:round"
       id="path2929"
       d="M 141.18442,172.39415 L 137.85442,182.91315 L 154.74242,174.61815 L 154.35942,171.71015 L 141.18442,172.39415 z" />
    <path
       style="fill:#680000;stroke:#000000;stroke-width:0.5;stroke-linejoin:round"
       id="path2931"
       d="M 187.62542,88.162155 L 188.02742,93.849155 L 188.34342,92.011155 L 188.15342,86.923155 L 187.62542,88.162155 z" />
    <path
       style="fill:#6b0000;stroke:#000000;stroke-width:0.5;stroke-linejoin:round"
       id="path2933"
       d="M 197.23742,69.135155 L 192.10242,73.624155 L 192.80142,74.693155 L 197.32042,71.187155 L 197.23742,69.135155 z" />
    <path
       style="fill:#9c0000;stroke:#000000;stroke-width:0.5;stroke-linejoin:round"
       id="path2935"
       d="M 187.33942,99.151155 L 184.89142,94.918155 L 169.60842,103.25615 L 182.61542,118.47615 L 187.33942,99.151155 z" />
    <path
       style="fill:#a60000;stroke:#000000;stroke-width:0.5;stroke-linejoin:round"
       id="path2937"
       d="M 204.70042,86.751155 L 194.10942,86.623155 L 196.60042,94.618155 L 204.70042,86.751155 z" />
    <path
       style="fill:#990000;stroke:#000000;stroke-width:0.5;stroke-linejoin:round"
       id="path2939"
       d="M 194.29742,86.238155 L 196.21342,93.507155 L 196.60042,94.618155 L 194.10942,86.623155 L 194.29742,86.238155 z" />
    <path
       style="fill:#ce0000;stroke:#000000;stroke-width:0.5;stroke-linejoin:round"
       id="path2941"
       d="M 194.29742,86.238155 L 197.55942,78.242155 L 189.77542,71.530155 L 183.44342,85.341155 L 194.29742,86.238155 z" />
    <path
       style="fill:#d90000;stroke:#000000;stroke-width:0.5;stroke-linejoin:round"
       id="path2943"
       d="M 141.18442,172.39415 L 147.58542,148.79215 L 132.79742,145.75815 L 127.48642,169.74515 L 141.18442,172.39415 z" />
    <path
       style="fill:#9f0000;stroke:#000000;stroke-width:0.5;stroke-linejoin:round"
       id="path2945"
       d="M 166.63342,51.993155 L 158.60442,62.810155 L 166.74142,67.770155 L 166.63342,51.993155 z" />
    <path
       style="fill:#b20000;stroke:#000000;stroke-width:0.5;stroke-linejoin:round"
       id="path2947"
       d="M 183.27442,88.505155 L 184.89142,94.919155 L 188.02742,93.850155 L 187.62542,88.163155 L 183.27442,88.505155 z" />
    <path
       style="fill:#bc0000;stroke:#000000;stroke-width:0.5;stroke-linejoin:round"
       id="path2949"
       d="M 80.653424,45.414155 L 94.937424,63.412155 L 100.44842,58.154155 L 91.320424,31.177155 L 80.653424,45.414155 z" />
    <path
       style="fill:#a30000;stroke:#000000;stroke-width:0.5;stroke-linejoin:round"
       id="path2951"
       d="M 166.66142,149.43315 L 167.25942,138.40215 L 160.54842,134.76815 L 160.26942,149.43415 L 166.66142,149.43415 L 166.66142,149.43315 z" />
    <path
       style="fill:#5d0000;stroke:#000000;stroke-width:0.5;stroke-linejoin:round"
       id="path2953"
       d="M 188.90542,80.894155 L 187.62542,88.163155 L 188.15342,86.923155 L 189.09342,80.509155 L 188.90542,80.894155 z" />
    <path
       style="fill:#ee0000;stroke:#000000;stroke-width:0.5;stroke-linejoin:round"
       id="path2955"
       d="M 153.08742,129.89415 L 140.00142,128.05815 L 137.57142,133.87315 L 151.23242,136.43615 L 153.08742,129.89415 z" />
    <path
       style="fill:#a80000;stroke:#000000;stroke-width:0.5;stroke-linejoin:round"
       id="path2957"
       d="M 204.70042,86.751155 L 198.07442,77.900155 L 194.10942,86.623155 L 204.70042,86.751155 z" />
    <path
       style="fill:#710000;stroke:#000000;stroke-width:0.5;stroke-linejoin:round"
       id="path2959"
       d="M 179.62742,120.87115 L 179.61042,123.56415 L 181.03942,130.36215 L 181.50342,129.84915 L 179.62742,120.87115 z" />
    <path
       style="fill:#760000;stroke:#000000;stroke-width:0.5;stroke-linejoin:round"
       id="path2961"
       d="M 168.79742,120.95715 L 177.04342,121.68415 L 182.61642,118.47615 L 169.60942,103.25615 L 168.79742,120.95715 z" />
    <path
       style="fill:#510000;stroke:#000000;stroke-width:0.5;stroke-linejoin:round"
       id="path2963"
       d="M 192.10342,73.625155 L 188.90542,80.894155 L 189.09342,80.509155 L 192.80142,74.694155 L 192.10342,73.625155 z" />
    <path
       style="fill:#ba0000;stroke:#000000;stroke-width:0.5;stroke-linejoin:round"
       id="path2965"
       d="M 179.46542,62.209155 L 189.35742,41.258155 L 185.56342,44.039155 L 176.50242,62.810155 L 179.46542,62.209155 z" />
    <path
       style="fill:#f60000;stroke:#000000;stroke-width:0.5;stroke-linejoin:round"
       id="path2967"
       d="M 151.23142,136.43615 L 137.57042,133.87315 L 132.79742,145.75915 L 147.58542,148.79315 L 151.23142,136.43615 z" />
    <path
       style="fill:#aa0000;stroke:#000000;stroke-width:0.5;stroke-linejoin:round"
       id="path2969"
       d="M 194.97842,64.518155 L 188.22542,69.862155 L 192.10342,73.624155 L 197.23842,69.135155 L 194.97842,64.518155 z" />
    <path
       style="fill:#b50000;stroke:#000000;stroke-width:0.5;stroke-linejoin:round"
       id="path2971"
       d="M 154.36042,171.71015 L 160.26942,149.43415 L 147.58542,148.79315 L 141.18442,172.39515 L 154.36042,171.71015 z" />
    <path
       style="fill:#710000;stroke:#000000;stroke-width:0.5;stroke-linejoin:round"
       id="path2973"
       d="M 169.14142,138.31615 L 177.19642,133.95515 L 177.20042,132.15915 L 170.48842,135.79315 L 169.14142,138.31615 z" />
    <path
       style="fill:#bc0000;stroke:#000000;stroke-width:0.5;stroke-linejoin:round"
       id="path2975"
       d="M 183.76842,79.910155 L 183.27542,88.504155 L 187.62642,88.162155 L 188.90642,80.893155 L 183.76842,79.910155 z" />
    <path
       style="fill:#ba0000;stroke:#000000;stroke-width:0.5;stroke-linejoin:round"
       id="path2977"
       d="M 173.47642,67.896155 L 179.46642,62.209155 L 176.50342,62.810155 L 166.74242,67.770155 L 173.47642,67.896155 z" />
    <path
       style="fill:#ad0000;stroke:#000000;stroke-width:0.5;stroke-linejoin:round"
       id="path2979"
       d="M 173.93842,120.14415 L 175.83942,122.83715 L 179.61042,123.56415 L 179.62742,120.87115 L 173.93842,120.14415 z" />
    <path
       style="fill:#d60000;stroke:#000000;stroke-width:0.5;stroke-linejoin:round"
       id="path2981"
       d="M 153.08742,129.89415 L 162.16142,118.47715 L 143.43442,122.37215 L 140.00142,128.05915 L 153.08742,129.89415 z" />
    <path
       style="fill:#d40000;stroke:#000000;stroke-width:0.5;stroke-linejoin:round"
       id="path2983"
       d="M 168.71242,126.17415 L 170.95742,126.21615 L 173.93942,120.14515 L 168.79842,120.95815 L 168.71242,126.17415 z" />
    <path
       style="fill:#a00000;stroke:#000000;stroke-width:0.5;stroke-linejoin:round"
       id="path2985"
       d="M 169.60842,103.25615 L 184.89142,94.918155 L 183.27442,88.504155 L 172.77142,88.632155 L 169.60842,103.25615 z" />
    <path
       style="fill:#7c0000;stroke:#000000;stroke-width:0.5;stroke-linejoin:round"
       id="path2987"
       d="M 194.97842,64.518155 L 200.70742,63.535155 L 205.13642,49.809155 L 196.72242,52.246155 L 194.97842,64.518155 z" />
    <path
       style="fill:#7e0000;stroke:#000000;stroke-width:0.5;stroke-linejoin:round"
       id="path2989"
       d="M 161.85442,133.95515 L 160.54842,134.76815 L 167.25942,138.40215 L 169.14042,138.31615 L 161.85442,133.95515 z" />
    <path
       style="fill:#b60000;stroke:#000000;stroke-width:0.5;stroke-linejoin:round"
       id="path2991"
       d="M 188.22442,69.863155 L 183.76742,79.911155 L 188.90442,80.894155 L 192.10242,73.625155 L 188.22442,69.863155 z" />
    <path
       style="fill:#b70000;stroke:#000000;stroke-width:0.5;stroke-linejoin:round"
       id="path2993"
       d="M 147.58542,148.79215 L 160.26942,149.43315 L 160.54842,134.76715 L 151.23142,136.43515 L 147.58542,148.79215 z" />
    <path
       style="fill:#8e0000;stroke:#000000;stroke-width:0.5;stroke-linejoin:round"
       id="path2995"
       d="M 172.28242,128.18215 L 170.48742,135.79315 L 177.19942,132.15915 L 181.03842,130.36315 L 172.28242,128.18215 z" />
    <path
       style="fill:#a80000;stroke:#000000;stroke-width:0.5;stroke-linejoin:round"
       id="path2997"
       d="M 172.28242,128.18215 L 181.03942,130.36215 L 179.61042,123.56415 L 175.83942,122.83715 L 172.28242,128.18215 z" />
    <path
       style="fill:#a50000;stroke:#000000;stroke-width:0.5;stroke-linejoin:round"
       id="path2999"
       d="M 151.23142,136.43615 L 160.54842,134.76815 L 158.22842,129.08115 L 153.08642,129.89415 L 151.23142,136.43615 z" />
    <path
       style="fill:#ed0000;stroke:#000000;stroke-width:0.5;stroke-linejoin:round"
       id="path3001"
       d="M 170.95742,126.21615 L 172.28342,128.18315 L 175.84042,122.83815 L 173.93942,120.14515 L 170.95742,126.21615 z" />
    <path
       style="fill:#950000;stroke:#000000;stroke-width:0.5;stroke-linejoin:round"
       id="path3003"
       d="M 164.41542,132.15915 L 161.85442,133.95515 L 169.14042,138.31615 L 170.48742,135.79315 L 164.41542,132.15915 z" />
    <path
       style="fill:#bc0000;stroke:#000000;stroke-width:0.5;stroke-linejoin:round"
       id="path3005"
       d="M 202.01142,37.239155 L 189.35742,41.258155 L 196.72142,52.245155 L 205.13542,49.808155 L 202.01142,37.239155 z" />
    <path
       style="fill:#6e0000;stroke:#000000;stroke-width:0.5;stroke-linejoin:round"
       id="path3007"
       d="M 162.16142,118.47615 L 160.42342,121.68415 L 168.79742,120.95715 L 169.60842,103.25615 L 162.16142,118.47615 z" />
    <path
       style="fill:#730000;stroke:#000000;stroke-width:0.5;stroke-linejoin:round"
       id="path3009"
       d="M 188.22442,69.863155 L 194.97742,64.519155 L 196.72142,52.247155 L 186.51042,69.563155 L 188.22442,69.863155 z" />
    <path
       style="fill:#930000;stroke:#000000;stroke-width:0.5;stroke-linejoin:round"
       id="path3011"
       d="M 161.85442,133.95515 L 159.76942,129.85015 L 158.22842,129.08115 L 160.54842,134.76815 L 161.85442,133.95515 z" />
    <path
       style="fill:#800000;stroke:#000000;stroke-width:0.5;stroke-linejoin:round"
       id="path3013"
       d="M 183.76842,79.910155 L 176.46942,76.446155 L 172.77242,88.632155 L 183.27542,88.504155 L 183.76842,79.910155 z" />
    <path
       style="fill:#7c0000;stroke:#000000;stroke-width:0.5;stroke-linejoin:round"
       id="path3015"
       d="M 168.16942,122.83815 L 172.28242,128.18315 L 170.95642,126.21615 L 167.54642,120.14515 L 168.16942,122.83815 z" />
    <path
       style="fill:#830000;stroke:#000000;stroke-width:0.5;stroke-linejoin:round"
       id="path3017"
       d="M 133.69542,111.08115 L 123.18842,117.49715 L 143.43442,122.37115 L 162.16142,118.47615 L 133.69542,111.08115 z" />
    <path
       style="fill:#e70000;stroke:#000000;stroke-width:0.5;stroke-linejoin:round"
       id="path3019"
       d="M 153.08742,129.89415 L 158.22942,129.08115 L 160.42442,121.68515 L 162.16242,118.47715 L 153.08742,129.89415 z" />
    <path
       style="fill:#9e0000;stroke:#000000;stroke-width:0.5;stroke-linejoin:round"
       id="path3021"
       d="M 164.41542,132.15915 L 170.48742,135.79315 L 172.28242,128.18215 L 163.14142,130.36215 L 164.41542,132.15915 z" />
    <path
       style="fill:#be0000;stroke:#000000;stroke-width:0.5;stroke-linejoin:round"
       id="path3023"
       d="M 159.76942,129.85015 L 161.72942,120.87115 L 160.42342,121.68415 L 158.22842,129.08015 L 159.76942,129.85015 z" />
    <path
       style="fill:#590000;stroke:#000000;stroke-width:0.5;stroke-linejoin:round"
       id="path3025"
       d="M 188.22442,69.863155 L 186.51042,69.563155 L 176.46942,76.447155 L 183.76842,79.911155 L 188.22442,69.863155 z" />
    <path
       style="fill:#540000;stroke:#000000;stroke-width:0.5;stroke-linejoin:round"
       id="path3027"
       d="M 161.54742,83.931155 L 160.43142,85.341155 L 154.09942,99.151155 L 153.25342,101.24815 L 161.54742,83.931155 z" />
    <path
       style="fill:#c30000;stroke:#000000;stroke-width:0.5;stroke-linejoin:round"
       id="path3029"
       d="M 164.26942,123.56515 L 168.16842,122.83815 L 167.54542,120.14515 L 161.72842,120.87215 L 164.26942,123.56515 z" />
    <path
       style="fill:#810000;stroke:#000000;stroke-width:0.5;stroke-linejoin:round"
       id="path3031"
       d="M 164.41542,132.15915 L 163.14142,130.36315 L 159.76942,129.85015 L 161.85442,133.95515 L 164.41542,132.15915 z" />
    <path
       style="fill:#980000;stroke:#000000;stroke-width:0.5;stroke-linejoin:round"
       id="path3033"
       d="M 161.54142,88.505155 L 158.04442,94.919155 L 169.60842,103.25715 L 172.77142,88.633155 L 161.54142,88.505155 z" />
    <path
       style="fill:#c30000;stroke:#000000;stroke-width:0.5;stroke-linejoin:round"
       id="path3035"
       d="M 70.216424,74.789155 L 90.932424,86.585155 L 94.999424,65.462155 L 94.937424,63.411155 L 70.216424,74.789155 z" />
    <path
       style="fill:#ed0000;stroke:#000000;stroke-width:0.5;stroke-linejoin:round"
       id="path3037"
       d="M 189.35742,41.259155 L 179.46542,62.210155 L 186.50942,69.563155 L 196.72042,52.247155 L 189.35742,41.259155 z" />
    <path
       style="fill:#af0000;stroke:#000000;stroke-width:0.5;stroke-linejoin:round"
       id="path3039"
       d="M 164.26942,123.56515 L 163.14142,130.36315 L 172.28242,128.18315 L 168.16942,122.83815 L 164.26942,123.56515 z" />
    <path
       style="fill:#ea0000;stroke:#000000;stroke-width:0.5;stroke-linejoin:round"
       id="path3041"
       d="M 163.14142,130.36315 L 164.26942,123.56515 L 161.72942,120.87215 L 159.76942,129.85115 L 163.14142,130.36315 z" />
    <path
       style="fill:#980000;stroke:#000000;stroke-width:0.5;stroke-linejoin:round"
       id="path3043"
       d="M 169.60842,103.25615 L 158.04442,94.918155 L 154.10042,99.151155 L 162.16142,118.47615 L 169.60842,103.25615 z" />
    <path
       style="fill:#6f0000;stroke:#000000;stroke-width:0.5;stroke-linejoin:round"
       id="path3045"
       d="M 156.39442,65.631155 L 156.53642,71.530155 L 160.43242,85.341155 L 161.54842,83.931155 L 156.39442,65.631155 z" />
    <path
       style="fill:#ee0000;stroke:#000000;stroke-width:0.5;stroke-linejoin:round"
       id="path3047"
       d="M 179.46542,62.209155 L 173.47542,67.896155 L 176.46842,76.446155 L 186.50942,69.562155 L 179.46542,62.209155 z" />
    <path
       style="fill:#5d0000;stroke:#000000;stroke-width:0.5;stroke-linejoin:round"
       id="path3049"
       d="M 153.25442,101.24815 L 154.10042,99.151155 L 140.35242,104.58215 L 135.17942,108.00415 L 153.25442,101.24815 z" />
    <path
       style="fill:#c10000;stroke:#000000;stroke-width:0.5;stroke-linejoin:round"
       id="path3051"
       d="M 100.44842,58.154155 L 106.42642,61.614155 L 126.14742,53.190155 L 121.99342,54.047155 L 100.44842,58.154155 z" />
    <path
       style="fill:#a10000;stroke:#000000;stroke-width:0.5;stroke-linejoin:round"
       id="path3053"
       d="M 172.77142,88.633155 L 176.46842,76.447155 L 163.31242,79.911155 L 161.54042,88.505155 L 172.77142,88.633155 z" />
    <path
       style="fill:#b60000;stroke:#000000;stroke-width:0.5;stroke-linejoin:round"
       id="path3055"
       d="M 94.937424,63.412155 L 94.999424,65.463155 L 106.42642,61.614155 L 100.44842,58.154155 L 94.937424,63.412155 z" />
    <path
       style="fill:#820000;stroke:#000000;stroke-width:0.5;stroke-linejoin:round"
       id="path3057"
       d="M 176.46942,76.446155 L 173.47642,67.896155 L 169.23842,62.209155 L 169.89042,69.562155 L 176.46942,76.446155 z" />
    <path
       style="fill:#920000;stroke:#000000;stroke-width:0.5;stroke-linejoin:round"
       id="path3059"
       d="M 114.45042,100.86315 L 108.40542,108.17615 L 123.18942,117.49715 L 133.69642,111.08115 L 114.45042,100.86315 z" />
    <path
       style="fill:#800000;stroke:#000000;stroke-width:0.5;stroke-linejoin:round"
       id="path3095"
       d="M 154.10042,99.151155 L 151.46842,93.506155 L 144.09342,96.157155 L 140.35242,104.58115 L 154.10042,99.151155 z" />
    <path
       style="fill:#c70000;stroke:#000000;stroke-width:0.5;stroke-linejoin:round"
       id="path3061"
       d="M 133.69542,111.08115 L 162.16142,118.47615 L 154.10042,99.151155 L 137.57942,105.77915 L 133.69542,111.08115 z" />
    <path
       style="fill:#6a0000;stroke:#000000;stroke-width:0.5;stroke-linejoin:round"
       id="path3063"
       d="M 157.34542,93.849155 L 158.04442,94.918155 L 161.54142,88.504155 L 159.49942,88.162155 L 157.34542,93.849155 z" />
    <path
       style="fill:#790000;stroke:#000000;stroke-width:0.5;stroke-linejoin:round"
       id="path3083"
       d="M 160.43242,85.341155 L 154.66642,86.238155 L 151.46842,93.507155 L 154.10042,99.152155 L 160.43242,85.341155 z" />
    <path
       style="fill:#570000;stroke:#000000;stroke-width:0.5;stroke-linejoin:round"
       id="path3065"
       d="M 154.12842,98.339155 L 154.10042,99.152155 L 158.04442,94.919155 L 157.34542,93.850155 L 154.12842,98.339155 z" />
    <path
       style="fill:#850000;stroke:#000000;stroke-width:0.5;stroke-linejoin:round"
       id="path3093"
       d="M 156.53642,71.530155 L 152.81442,78.242155 L 154.66642,86.238155 L 160.43242,85.341155 L 156.53642,71.530155 z" />
    <path
       style="fill:#7a0000;stroke:#000000;stroke-width:0.5;stroke-linejoin:round"
       id="path3067"
       d="M 159.49942,88.162155 L 161.54142,88.504155 L 163.31342,79.910155 L 159.50142,80.893155 L 159.49942,88.162155 z" />
    <path
       style="fill:#dd0000;stroke:#000000;stroke-width:0.5;stroke-linejoin:round"
       id="path3069"
       d="M 155.10442,92.011155 L 157.34542,93.849155 L 159.49942,88.162155 L 156.19242,86.922155 L 155.10442,92.011155 z" />
    <path
       style="fill:#9c0000;stroke:#000000;stroke-width:0.5;stroke-linejoin:round"
       id="path3117"
       d="M 140.35242,104.58215 L 144.09342,96.158155 L 136.59142,92.994155 L 127.26642,98.254155 L 140.35242,104.58215 z" />
    <path
       style="fill:#880000;stroke:#000000;stroke-width:0.5;stroke-linejoin:round"
       id="path3071"
       d="M 135.17942,108.00415 L 140.35242,104.58215 L 127.26642,98.254155 L 118.02242,100.09415 L 135.17942,108.00415 z" />
    <path
       style="fill:#e00000;stroke:#000000;stroke-width:0.5;stroke-linejoin:round"
       id="path3073"
       d="M 151.88742,96.500155 L 154.12842,98.338155 L 157.34542,93.849155 L 155.10442,92.011155 L 151.88742,96.500155 z" />
    <path
       style="fill:#a20000;stroke:#000000;stroke-width:0.5;stroke-linejoin:round"
       id="path3075"
       d="M 139.60142,57.850155 L 143.81342,65.331155 L 156.53642,71.531155 L 156.39442,65.632155 L 139.60142,57.850155 z" />
    <path
       style="fill:#ce0000;stroke:#000000;stroke-width:0.5;stroke-linejoin:round"
       id="path3077"
       d="M 156.19242,86.923155 L 159.49942,88.163155 L 159.50142,80.894155 L 157.13242,80.509155 L 156.19242,86.923155 z" />
    <path
       style="fill:#900000;stroke:#000000;stroke-width:0.5;stroke-linejoin:round"
       id="path3079"
       d="M 176.46942,76.446155 L 169.89042,69.562155 L 161.37742,69.862155 L 163.31342,79.910155 L 176.46942,76.446155 z" />
    <path
       style="fill:#790000;stroke:#000000;stroke-width:0.5;stroke-linejoin:round"
       id="path3081"
       d="M 139.78142,102.05915 L 137.57942,105.77915 L 154.10042,99.151155 L 154.12842,98.338155 L 139.78142,102.05915 z" />
    <path
       style="fill:#910000;stroke:#000000;stroke-width:0.5;stroke-linejoin:round"
       id="path3085"
       d="M 159.50142,80.894155 L 163.31342,79.911155 L 161.37742,69.863155 L 157.58542,73.625155 L 159.50142,80.894155 z" />
    <path
       style="fill:#d30000;stroke:#000000;stroke-width:0.5;stroke-linejoin:round"
       id="path3087"
       d="M 139.24742,99.622155 L 139.78242,102.05915 L 154.12942,98.339155 L 151.88842,96.501155 L 139.24742,99.622155 z" />
    <path
       style="fill:#a70000;stroke:#000000;stroke-width:0.5;stroke-linejoin:round"
       id="path3089"
       d="M 114.45042,100.86315 L 133.69542,111.08115 L 137.57942,105.77915 L 126.92142,100.90515 L 114.45042,100.86315 z" />
    <path
       style="fill:#bb0000;stroke:#000000;stroke-width:0.5;stroke-linejoin:round"
       id="path3091"
       d="M 157.13242,80.509155 L 159.50142,80.894155 L 157.58542,73.625155 L 154.44942,74.694155 L 157.13242,80.509155 z" />
    <path
       style="fill:#980000;stroke:#000000;stroke-width:0.5;stroke-linejoin:round"
       id="path3097"
       d="M 130.70242,98.040155 L 126.92242,100.90615 L 137.58042,105.78015 L 139.78242,102.06015 L 130.70242,98.040155 z" />
    <path
       style="fill:#6d0000;stroke:#000000;stroke-width:0.5;stroke-linejoin:round"
       id="path3099"
       d="M 169.89042,69.562155 L 169.23842,62.209155 L 163.78942,41.258155 L 163.48242,52.245155 L 169.89042,69.562155 z" />
    <path
       style="fill:#b10000;stroke:#000000;stroke-width:0.5;stroke-linejoin:round"
       id="path3119"
       d="M 143.81342,65.331155 L 145.95142,75.079155 L 152.81442,78.243155 L 156.53642,71.531155 L 143.81342,65.331155 z" />
    <path
       style="fill:#ae0000;stroke:#000000;stroke-width:0.5;stroke-linejoin:round"
       id="path3101"
       d="M 157.58542,73.625155 L 161.37742,69.863155 L 154.06742,64.519155 L 152.49242,69.136155 L 157.58542,73.625155 z" />
    <path
       style="fill:#b00000;stroke:#000000;stroke-width:0.5;stroke-linejoin:round"
       id="path3103"
       d="M 105.62842,86.668155 L 89.601424,89.193155 L 108.40542,108.17515 L 114.45042,100.86215 L 105.62842,86.668155 z" />
    <path
       style="fill:#bc0000;stroke:#000000;stroke-width:0.5;stroke-linejoin:round"
       id="path3105"
       d="M 118.02242,100.09415 L 127.26642,98.254155 L 122.64342,84.187155 L 112.44142,82.393155 L 118.02242,100.09415 z" />
    <path
       style="fill:#a30000;stroke:#000000;stroke-width:0.5;stroke-linejoin:round"
       id="path3107"
       d="M 154.44942,74.694155 L 157.58542,73.625155 L 152.49242,69.136155 L 151.29742,71.189155 L 154.44942,74.694155 z" />
    <path
       style="fill:#db0000;stroke:#000000;stroke-width:0.5;stroke-linejoin:round"
       id="path3109"
       d="M 121.16342,64.478155 L 129.70242,70.634155 L 143.81442,65.331155 L 139.60242,57.850155 L 121.16342,64.478155 z" />
    <path
       style="fill:#b10000;stroke:#000000;stroke-width:0.5;stroke-linejoin:round"
       id="path3111"
       d="M 131.38142,96.330155 L 130.70142,98.040155 L 139.78142,102.05915 L 139.24642,99.622155 L 131.38142,96.330155 z" />
    <path
       style="fill:#bd0000;stroke:#000000;stroke-width:0.5;stroke-linejoin:round"
       id="path3113"
       d="M 126.14742,53.190155 L 132.07142,51.008155 L 149.59642,37.239155 L 141.19942,41.474155 L 126.14742,53.190155 z" />
    <path
       style="fill:#a60000;stroke:#000000;stroke-width:0.5;stroke-linejoin:round"
       id="path3115"
       d="M 163.48242,52.246155 L 154.06842,64.518155 L 161.37842,69.862155 L 169.89142,69.562155 L 163.48242,52.246155 z" />
    <path
       style="fill:#ee0000;stroke:#000000;stroke-width:0.5;stroke-linejoin:round"
       id="path3121"
       d="M 112.44142,82.393155 L 122.64342,84.187155 L 129.70142,70.633155 L 121.16242,64.477155 L 112.44142,82.393155 z" />
    <path
       style="fill:#bc0000;stroke:#000000;stroke-width:0.5;stroke-linejoin:round"
       id="path3123"
       d="M 152.49342,69.135155 L 154.06842,64.518155 L 147.01342,63.535155 L 146.71642,68.153155 L 152.49342,69.135155 z" />
    <path
       style="fill:#a80000;stroke:#000000;stroke-width:0.5;stroke-linejoin:round"
       id="path3125"
       d="M 151.29842,71.188155 L 152.49342,69.135155 L 146.71742,68.152155 L 146.16142,70.204155 L 151.29842,71.188155 z" />
    <path
       style="fill:#b40000;stroke:#000000;stroke-width:0.5;stroke-linejoin:round"
       id="path3127"
       d="M 105.62842,86.668155 L 114.45042,100.86315 L 126.92242,100.90515 L 115.99142,88.891155 L 105.62842,86.668155 z" />
    <path
       style="fill:#c00000;stroke:#000000;stroke-width:0.5;stroke-linejoin:round"
       id="path3141"
       d="M 127.26642,98.254155 L 136.59142,92.994155 L 134.31242,85.598155 L 122.64442,84.188155 L 127.26642,98.254155 z" />
    <path
       style="fill:#ac0000;stroke:#000000;stroke-width:0.5;stroke-linejoin:round"
       id="path3129"
       d="M 121.34442,88.676155 L 115.99142,88.890155 L 126.92242,100.90515 L 130.70242,98.039155 L 121.34442,88.676155 z" />
    <path
       style="fill:#b00000;stroke:#000000;stroke-width:0.5;stroke-linejoin:round"
       id="path3131"
       d="M 123.66542,87.095155 L 121.34442,88.677155 L 130.70242,98.040155 L 131.38242,96.330155 L 123.66542,87.095155 z" />
    <path
       style="fill:#9d0000;stroke:#000000;stroke-width:0.5;stroke-linejoin:round"
       id="path3133"
       d="M 153.13442,94.618155 L 157.03542,86.623155 L 147.17142,86.751155 L 153.13442,94.618155 z" />
    <path
       style="fill:#b30000;stroke:#000000;stroke-width:0.5;stroke-linejoin:round"
       id="path3135"
       d="M 106.42642,61.614155 L 110.30442,60.885155 L 132.07142,51.008155 L 126.14742,53.190155 L 106.42642,61.614155 z" />
    <path
       style="fill:#9f0000;stroke:#000000;stroke-width:0.5;stroke-linejoin:round"
       id="path3137"
       d="M 157.03542,86.623155 L 154.60842,77.900155 L 147.17142,86.751155 L 157.03542,86.623155 z" />
    <path
       style="fill:#a00000;stroke:#000000;stroke-width:0.5;stroke-linejoin:round"
       id="path3139"
       d="M 145.05542,97.996155 L 153.13442,94.618155 L 147.17142,86.751155 L 145.05542,97.996155 z" />
    <path
       style="fill:#d30000;stroke:#000000;stroke-width:0.5;stroke-linejoin:round"
       id="path3143"
       d="M 129.70142,70.634155 L 137.93742,77.730155 L 145.95142,75.079155 L 143.81342,65.331155 L 129.70142,70.634155 z" />
    <path
       style="fill:#da0000;stroke:#000000;stroke-width:0.5;stroke-linejoin:round"
       id="path3157"
       d="M 122.64342,84.187155 L 134.31142,85.597155 L 137.93642,77.729155 L 129.70042,70.633155 L 122.64342,84.187155 z" />
    <path
       style="fill:#ca0000;stroke:#000000;stroke-width:0.5;stroke-linejoin:round"
       id="path3145"
       d="M 146.71642,68.153155 L 147.01342,63.535155 L 137.29242,66.785155 L 140.15542,71.316155 L 146.71642,68.153155 z" />
    <path
       style="fill:#810000;stroke:#000000;stroke-width:0.5;stroke-linejoin:round"
       id="path3147"
       d="M 146.16142,70.205155 L 146.71742,68.153155 L 140.15642,71.317155 L 139.64142,71.659155 L 146.16142,70.205155 z" />
    <path
       style="fill:#810000;stroke:#000000;stroke-width:0.5;stroke-linejoin:round"
       id="path3149"
       d="M 123.60342,80.553155 L 121.83742,80.083155 L 121.34442,88.677155 L 123.66542,87.095155 L 123.60342,80.553155 z" />
    <path
       style="fill:#980000;stroke:#000000;stroke-width:0.5;stroke-linejoin:round"
       id="path3151"
       d="M 153.99942,49.809155 L 147.01442,63.535155 L 154.06942,64.518155 L 163.48342,52.246155 L 153.99942,49.809155 z" />
    <path
       style="fill:#ae0000;stroke:#000000;stroke-width:0.5;stroke-linejoin:round"
       id="path3153"
       d="M 147.17142,86.751155 L 136.61542,93.978155 L 145.05542,97.997155 L 147.17142,86.751155 z" />
    <path
       style="fill:#b30000;stroke:#000000;stroke-width:0.5;stroke-linejoin:round"
       id="path3155"
       d="M 163.48242,52.246155 L 163.78942,41.259155 L 149.59642,37.240155 L 153.99942,49.809155 L 163.48242,52.246155 z" />
    <path
       style="fill:#b10000;stroke:#000000;stroke-width:0.5;stroke-linejoin:round"
       id="path3159"
       d="M 154.60742,77.900155 L 147.16942,74.009155 L 147.17042,86.750155 L 154.60742,77.900155 z" />
    <path
       style="fill:#c40000;stroke:#000000;stroke-width:0.5;stroke-linejoin:round"
       id="path3161"
       d="M 121.83742,80.083155 L 115.60942,78.715155 L 115.99042,88.891155 L 121.34342,88.677155 L 121.83742,80.083155 z" />
    <path
       style="fill:#800000;stroke:#000000;stroke-width:0.5;stroke-linejoin:round"
       id="path3163"
       d="M 126.33242,75.593155 L 124.63042,74.396155 L 121.83642,80.083155 L 123.60242,80.553155 L 126.33242,75.593155 z" />
    <path
       style="fill:#ad0000;stroke:#000000;stroke-width:0.5;stroke-linejoin:round"
       id="path3165"
       d="M 94.999424,65.463155 L 96.256424,65.461155 L 110.30342,60.886155 L 106.42542,61.615155 L 94.999424,65.463155 z" />
    <path
       style="fill:#5e0000;stroke:#000000;stroke-width:0.5;stroke-linejoin:round"
       id="path3167"
       d="M 139.64042,71.658155 L 140.15542,71.316155 L 124.63142,74.396155 L 126.33342,75.593155 L 139.64042,71.658155 z" />
    <path
       style="fill:#950000;stroke:#000000;stroke-width:0.5;stroke-linejoin:round"
       id="path3169"
       d="M 134.39942,85.853155 L 134.31142,85.597155 L 136.59042,92.993155 L 136.61442,93.976155 L 134.39942,85.853155 z" />
    <path
       style="fill:#dd0000;stroke:#000000;stroke-width:0.5;stroke-linejoin:round"
       id="path3171"
       d="M 140.15542,71.316155 L 137.29242,66.785155 L 120.17242,71.702155 L 124.63042,74.395155 L 140.15542,71.316155 z" />
    <path
       style="fill:#ba0000;stroke:#000000;stroke-width:0.5;stroke-linejoin:round"
       id="path3173"
       d="M 134.39942,85.853155 L 136.61442,93.977155 L 147.17042,86.750155 L 134.39942,85.853155 z" />
    <path
       style="fill:#d00000;stroke:#000000;stroke-width:0.5;stroke-linejoin:round"
       id="path3175"
       d="M 124.63142,74.396155 L 120.17342,71.703155 L 115.61042,78.715155 L 121.83842,80.083155 L 124.63142,74.396155 z" />
    <path
       style="fill:#bf0000;stroke:#000000;stroke-width:0.5;stroke-linejoin:round"
       id="path3177"
       d="M 147.17042,74.009155 L 138.08842,77.259155 L 147.17142,86.750155 L 147.17042,74.009155 z" />
    <path
       style="fill:#ad0000;stroke:#000000;stroke-width:0.5;stroke-linejoin:round"
       id="path3179"
       d="M 108.30442,71.574155 L 105.62942,86.668155 L 115.99142,88.891155 L 115.61042,78.715155 L 108.30442,71.574155 z" />
    <path
       style="fill:#7a0000;stroke:#000000;stroke-width:0.5;stroke-linejoin:round"
       id="path3181"
       d="M 153.99942,49.809155 L 141.18642,57.891155 L 137.29342,66.786155 L 147.01442,63.536155 L 153.99942,49.809155 z" />
    <path
       style="fill:#ab0000;stroke:#000000;stroke-width:0.5;stroke-linejoin:round"
       id="path3183"
       d="M 108.30442,71.574155 L 96.257424,65.460155 L 89.601424,89.193155 L 105.62842,86.668155 L 108.30442,71.574155 z" />
    <path
       style="fill:#c00000;stroke:#000000;stroke-width:0.5;stroke-linejoin:round"
       id="path3185"
       d="M 138.08842,77.259155 L 134.39942,85.853155 L 147.17042,86.750155 L 138.08842,77.259155 z" />
    <path
       style="fill:#eb0000;stroke:#000000;stroke-width:0.5;stroke-linejoin:round"
       id="path3187"
       d="M 153.99942,49.809155 L 149.59642,37.240155 L 132.07142,51.008155 L 141.18542,57.890155 L 153.99942,49.809155 z" />
    <path
       style="fill:#700000;stroke:#000000;stroke-width:0.5;stroke-linejoin:round"
       id="path3189"
       d="M 141.18542,57.890155 L 116.37042,69.093155 L 120.17342,71.702155 L 137.29342,66.785155 L 141.18542,57.890155 z" />
    <path
       style="fill:#980000;stroke:#000000;stroke-width:0.5;stroke-linejoin:round"
       id="path3191"
       d="M 116.37042,69.093155 L 108.30442,71.574155 L 115.61042,78.714155 L 120.17342,71.702155 L 116.37042,69.093155 z" />
    <path
       style="fill:#e30000;stroke:#000000;stroke-width:0.5;stroke-linejoin:round"
       id="path3193"
       d="M 141.18542,57.890155 L 132.07142,51.008155 L 110.30442,60.885155 L 116.36942,69.093155 L 141.18542,57.890155 z" />
    <path
       style="fill:#d80000;stroke:#000000;stroke-width:0.5;stroke-linejoin:round"
       id="path3195"
       d="M 116.37042,69.093155 L 110.30542,60.885155 L 96.258424,65.460155 L 108.30542,71.574155 L 116.37042,69.093155 z" />
    <path
       style="fill:#9d0000;stroke:#000000;stroke-width:0.5;stroke-miterlimit:2"
       id="path3557"
       stroke-miterlimit="2"
       d="M 96.552424,65.540155 L 94.882424,65.659155 L 89.633424,89.159155 L 96.552424,65.540155 z" />
    <path
       style="fill:#940000;stroke:#000000;stroke-width:0.5;stroke-linejoin:round"
       id="path2777"
       d="M 218.61142,71.702155 L 207.60642,66.785155 L 209.19042,71.316155 L 216.67742,74.396155 L 218.61142,71.702155 z" />
  </g>
</svg>
